<svg id="Layer_1" data-name="Layer 1" xmlns="http://www.w3.org/2000/svg" viewBox="0 0 180.23 51"><defs><style>.cls-1{fill:#fff;}</style></defs><title>logomark.white.short</title><path class="cls-1" d="M90.41,47.38l-10-14.06a31.86,31.86,0,0,1-3.5.19H65.16V47.38H60.53V3.62H76.91q8.38,0,13.13,4t4.75,11a14.23,14.23,0,0,1-2.59,8.66,14.37,14.37,0,0,1-7.41,5.09l10.69,15ZM86.72,26.69a9.93,9.93,0,0,0,3.44-8.06q0-5.31-3.44-8.16T76.78,7.62H65.16V29.56H76.78Q83.28,29.56,86.72,26.69Z"/><path class="cls-1" d="M110.35,8.16V24.81H133v4H110.35V47.38h-4.63V4.16h30v4Z"/><path class="cls-1" d="M175.54,24.74H180V41.43a21.37,21.37,0,0,1-7.25,4.13A26.93,26.93,0,0,1,163.91,47a24.19,24.19,0,0,1-11.81-2.88,21.22,21.22,0,0,1-8.25-8,22,22,0,0,1-3-11.41,22.05,22.05,0,0,1,3-11.41,21.22,21.22,0,0,1,8.25-8A24.33,24.33,0,0,1,164,2.49a25.63,25.63,0,0,1,9.19,1.59,18.27,18.27,0,0,1,7.06,4.72l-2.88,2.94a18,18,0,0,0-13.19-5.13A19.67,19.67,0,0,0,154.57,9a17.26,17.26,0,0,0-6.72,6.5,18,18,0,0,0-2.44,9.28A17.86,17.86,0,0,0,147.85,34a17.6,17.6,0,0,0,6.69,6.5,20.77,20.77,0,0,0,21-1Z"/><path class="cls-1" d="M53,16.29,34.43,0,5.8,4,0,32.24,16.21,51l22.93-4.33,6.42-1.15,0-.07.19,0ZM40.09,8.58,31.24,3.19l2.34-.32ZM34.84,30.07l-5.66-25L48.77,17.06Zm14-9.38-5.17,21L36,32.73Zm-16.7,9.92L6.8,23.53,26.34,4.9Zm-.73,2.62L17.36,47,6.8,26.36ZM21.12,47.12,34,34.56l7.67,8.87-3,.56ZM8.08,6.39,23,4.33,5,21.52ZM3.91,26.7,11.34,41.2l-8.4-9.73Z"/></svg>