<svg id="Layer_1" data-name="Layer 1" xmlns="http://www.w3.org/2000/svg" viewBox="0 0 500 51"><defs><style>.cls-1{fill:#fff;}</style></defs><title>logomark.white.full</title><path class="cls-1" d="M333.25,23.46h9.07v17.4a25.9,25.9,0,0,1-8.09,4A31.42,31.42,0,0,1,325,46.31a25.07,25.07,0,0,1-12-2.85,21.21,21.21,0,0,1-8.36-7.9,21.78,21.78,0,0,1-3-11.43,21.78,21.78,0,0,1,3-11.43A21.12,21.12,0,0,1,313,4.81,25.58,25.58,0,0,1,325.16,2a26.59,26.59,0,0,1,10.23,1.9,20.31,20.31,0,0,1,7.72,5.52l-6.37,5.88a14.74,14.74,0,0,0-11.09-4.84,15.14,15.14,0,0,0-7.29,1.71,12.33,12.33,0,0,0-5,4.84,14.25,14.25,0,0,0-1.78,7.17,14.13,14.13,0,0,0,1.78,7.11,12.58,12.58,0,0,0,4.93,4.87,14.62,14.62,0,0,0,7.2,1.75A16.08,16.08,0,0,0,333.25,36Z"/><path class="cls-1" d="M356.26,41.23q-5.11-5.08-5.11-14.52V2.7h9.92V26.34q0,11.52,9.55,11.52,4.66,0,7.11-2.79t2.45-8.73V2.7H390v24q0,9.43-5.12,14.52t-14.3,5.09Q361.37,46.31,356.26,41.23Z"/><path class="cls-1" d="M399.78,2.7h9.92V45.58h-9.92Z"/><path class="cls-1" d="M419.87,2.7h9.92v34.8h21.5v8.09H419.87Z"/><path class="cls-1" d="M456.87,2.7h19.48A27.38,27.38,0,0,1,488.7,5.36,20,20,0,0,1,497,12.87a21.11,21.11,0,0,1,3,11.27,21.11,21.11,0,0,1-3,11.27,20,20,0,0,1-8.33,7.5,27.38,27.38,0,0,1-12.34,2.67H456.87Zm19,34.73q6.43,0,10.26-3.58T490,24.14q0-6.13-3.83-9.71t-10.26-3.58H466.8V37.43Z"/><path class="cls-1" d="M27.32,45.58,19.05,33.63H9.92V45.58H0V2.7H18.56a23.82,23.82,0,0,1,9.89,1.9A14.7,14.7,0,0,1,34.92,10a14.85,14.85,0,0,1,2.27,8.27,14.56,14.56,0,0,1-2.3,8.24,14.56,14.56,0,0,1-6.52,5.3L38,45.58ZM24.81,12.71q-2.33-1.93-6.8-1.93H9.92V25.73H18q4.47,0,6.8-2a6.81,6.81,0,0,0,2.33-5.51A6.79,6.79,0,0,0,24.81,12.71Z"/><path class="cls-1" d="M53.76,43.43a21.37,21.37,0,0,1-8.39-7.93,21.66,21.66,0,0,1-3-11.36,21.66,21.66,0,0,1,3-11.36,21.38,21.38,0,0,1,8.39-7.93A25,25,0,0,1,65.79,2a24.85,24.85,0,0,1,12,2.88,21.45,21.45,0,0,1,11.46,19.3A21.45,21.45,0,0,1,77.8,43.43a24.85,24.85,0,0,1-12,2.88A25,25,0,0,1,53.76,43.43Zm18.9-7.32a12.52,12.52,0,0,0,4.81-4.87,14.32,14.32,0,0,0,1.75-7.11A14.32,14.32,0,0,0,77.46,17a12.53,12.53,0,0,0-4.81-4.87,14.36,14.36,0,0,0-13.72,0A12.52,12.52,0,0,0,54.12,17a14.32,14.32,0,0,0-1.75,7.11,14.32,14.32,0,0,0,1.75,7.11,12.51,12.51,0,0,0,4.81,4.87,14.36,14.36,0,0,0,13.72,0Z"/><path class="cls-1" d="M96.73,2.7h9.92v34.8h21.5v8.09H96.73Z"/><path class="cls-1" d="M133.73,2.7h9.92v34.8h21.5v8.09H133.73Z"/><path class="cls-1" d="M176.24,5.51V23.83h22.85v2.82H176.24V45.58h-3.12V2.7h28.67V5.51Z"/><path class="cls-1" d="M292.33,45.58,282.1,31.24a31.06,31.06,0,0,1-4.16.31H265.68v14h-3.12V2.7h15.38q8.09,0,12.68,3.83t4.59,10.63a13.81,13.81,0,0,1-2.6,8.54,13.79,13.79,0,0,1-7.44,4.87l10.72,15Zm-14.4-16.79q6.86,0,10.48-3T292,17.15q0-5.57-3.61-8.61t-10.48-3H265.68V28.79Z"/><path class="cls-1" d="M258.14,16.32,239.64.08,211.09,4l-5.78,28.19,16.16,18.7,22.86-4.32,6.4-1.14,0-.07.19,0ZM245.28,8.63l-8.82-5.38,2.33-.32ZM240,30.06,234.4,5.18l19.53,11.91Zm14-9.35-5.15,20.91-7.7-8.91Zm-16.65,9.89-25.29-7.05L231.57,5Zm-.73,2.61-14,13.73L212.09,26.35ZM226.37,47.06l12.81-12.53,7.64,8.84-3,.56Zm-13-40.61,14.87-2.06-18,17.13Zm-4.15,20.24,7.4,14.46-8.38-9.7Z"/></svg>