<svg id="Layer_1" data-name="Layer 1"
  xmlns="http://www.w3.org/2000/svg" viewBox="0 0 799.28 463.54">
  <defs>
    <style>.cls-1{fill:#fff;}</style>
  </defs>
  <title>logo.white</title>
  <path class="cls-1" d="M244.45,336.51c.66.87,1.32,1.73,2,2.57l79.74-136V197.1Z"/>
  <path class="cls-1" d="M162.37,112.27l24,74.25c.65-1.42,1.22-2.88,1.74-4.36l-24.48-75.77c-1.38-.85-2.79-1.65-4.25-2.39l-.07,111.16q1.54-.85,3-1.75Z"/>
  <path class="cls-1" d="M581.23,356.61l24.65-13.33-.71-1.32h1.5l.16-238.89h-1.5l.62-1.36-2.59-1.19q-4.21,1.83-8.19,4h8.1L542.46,291.85q.76,2.44,1.58,4.85l59.77-184.13-.15,228L568.6,343c.76,1,1.52,1.92,2.3,2.85l27.46-1.91-19.44,10.52C579.68,355.19,580.45,355.91,581.23,356.61Z"/>
  <path class="cls-1" d="M441.89,206.5l32,54.81q-.36-3.45-.58-6.94l-31.73-54.3Z"/>
  <path class="cls-1" d="M204,84.72l177.62-81-.07,97.72-154-.1q1.49,1.46,2.93,3l150,.1L327.21,195.3h3.48l52.41-89.41,52.25,89.41h3.47l-53.1-90.88,152.82.1q1.85-1.53,3.74-3l-157.67-.11.07-97.72L565.34,86.42c1.12-.6,2.26-1.17,3.4-1.74L383.79,0l-.62,1.36L382.54,0,200.45,83.07C201.66,83.59,202.86,84.15,204,84.72Z"/>
  <path class="cls-1" d="M539.77,375.63,397,452.86l120.85-96.31c-.69-.73-1.38-1.45-2.06-2.19L382.86,460.3l-79.37-63.43h-4.81l70,56-103.11-56h-6.29l122.83,66.66.72-1.32.71,1.32,159-86C541.61,376.91,540.69,376.28,539.77,375.63Z"/>
  <path class="cls-1" d="M203.84,230.86c-.9.44-1.81.87-2.73,1.3l26,80.51,5.72,7.95Z"/>
  <polygon class="cls-1" points="210.1 370.17 206.03 364.55 167.52 343.65 192.16 345.39 189.87 342.22 162.22 340.26 162.24 304.06 159.24 299.92 159.22 341.66 160.72 341.66 160 342.98 210.1 370.17"/>
  <path class="cls-1" d="M509.58,347.14l-.94-1.19-113-.08V348H326.16v-2.14l-74.34-.05q1.29,1.54,2.54,3L511.1,349C510.59,348.35,510.08,347.75,509.58,347.14Z"/>
  <path class="cls-1" d="M316,393.38H231.22L123.69,244.85q-11.95.47-19.44.47-3,0-6.56-.12t-7.26-.35v92.3q0,30,6.56,37.25,8.9,10.31,26.71,10.31h12.42v8.67H0v-8.67H11.95q20.15,0,28.81-13.12,4.92-7.26,4.92-34.44V131.93q0-30-6.56-37.25Q30,84.38,11.95,84.38H0V75.71H115.73q50.6,0,74.61,7.38a85.38,85.38,0,0,1,40.76,27.18q16.75,19.8,16.75,47.21,0,29.29-19.09,50.84t-59.15,30.46l65.59,91.13q22.49,31.39,38.65,41.7T316,384.71ZM90.43,230.09q4.45,0,7.73.12t5.39.12q45.45,0,68.52-19.68t23.08-50.13q0-29.75-18.62-48.38T127.21,93.51q-13.59,0-36.78,4.45Zm280.69-23.34V264h26.53q9.13,0,13.37-4t5.64-16h4v49.31h-4q-.11-8.48-2.2-12.46a14,14,0,0,0-5.8-6q-3.71-2-11-2H371.12v45.76q0,11.07,1.4,14.61a9.6,9.6,0,0,0,4.51,4.62,20.36,20.36,0,0,0,9.88,2.58h5.26v4H329.66v-4h5.16q9,0,13.11-5.26,2.58-3.44,2.58-16.54v-94.1q0-11.06-1.4-14.61a9.69,9.69,0,0,0-4.4-4.62,20,20,0,0,0-9.88-2.58h-5.16v-4H438l1.4,32h-3.76q-2.79-10.2-6.5-15a21.37,21.37,0,0,0-9.13-6.93q-5.43-2.15-16.81-2.15Zm382.95-135L762.27,172h-8.2Q741.65,134.57,722,115.59q-28.35-27.41-72.86-27.41-60.68,0-92.3,48-26.48,40.53-26.47,96.52,0,45.45,17.57,82.93t46,54.94Q622.41,388,652.4,388a129.05,129.05,0,0,0,34-4.45A135.38,135.38,0,0,0,718,370.47V278.64q0-23.89-3.63-31.27a24.54,24.54,0,0,0-11.25-11.25q-7.62-3.87-26.82-3.87v-8.9h123v8.9h-5.86q-18.27,0-25.07,12.18-4.69,8.67-4.69,34.2v97.22a237.9,237.9,0,0,1-53.18,21.32Q684.25,404,652.16,404q-92.07,0-139.86-59-35.84-44.28-35.84-102.14,0-41.93,20.15-80.35,23.89-45.68,65.59-70.28,34.9-20.38,82.46-20.38a162.44,162.44,0,0,1,31.51,2.81Q690.35,77.4,716.35,87q13.12,4.92,17.57,4.92a9.37,9.37,0,0,0,7.61-4.1q3.16-4.1,3.87-16Z"/>
</svg>