<svg id="Layer_1" data-name="Layer 1" xmlns="http://www.w3.org/2000/svg" viewBox="0 0 52.99 51"><defs><style>.cls-1{fill:#fff;}</style></defs><title>logomark.white.die</title><path class="cls-1" d="M53,16.29,34.43,0,5.8,4,0,32.24,16.21,51l22.93-4.33,6.42-1.15,0-.07.19,0ZM40.09,8.58,31.24,3.19l2.34-.32ZM34.84,30.07l-5.66-25L48.77,17.06Zm14-9.38-5.17,21L36,32.73Zm-16.7,9.92L6.8,23.53,26.34,4.9Zm-.73,2.62L17.36,47,6.8,26.36ZM21.12,47.12,34,34.56l7.67,8.87-3,.56ZM8.08,6.39,23,4.33,5,21.52ZM3.91,26.7,11.34,41.2l-8.4-9.73Z"/></svg>