<svg version="1" xmlns="http://www.w3.org/2000/svg" width="8890.667" height="8890.667" viewBox="0 0 6668.000000 6668.000000"><path d="M3181 1407.1c-4.7 2.2-10.7 5.1-13.5 6.4-4.7 2.2-11.3 5.2-23 10.5-6 2.7-25.6 11.7-34 15.5-3.3 1.5-8.2 3.8-11 5-2.7 1.2-7.9 3.6-11.5 5.2-14 6.5-18.2 8.4-23.5 10.8-3 1.4-8 3.6-11 5-10 4.6-16.9 7.7-23 10.5-3.3 1.5-8.5 3.9-11.5 5.3-3 1.3-8.4 3.8-12 5.4-14.3 6.6-17.5 8.1-18.2 8.2-.4.1-3.9 1.7-7.7 3.6-3.8 1.9-7.2 3.5-7.4 3.5-.3 0-7.4 3.2-15.9 7.1-8.4 3.8-16.6 7.6-18.3 8.4-1.6.7-6.4 2.9-10.5 4.8s-9.7 4.5-12.5 5.7c-2.7 1.2-7.7 3.5-11 5-16 7.5-20.1 9.3-21 9.6-.5.1-5.3 2.2-10.5 4.7-8.7 4.1-16.8 7.8-18 8.2-.5.1-3.8 1.7-20.7 9.7-3.5 1.6-6.6 2.9-7 3-.5.1-3.8 1.6-7.5 3.5-3.6 1.8-6.9 3.3-7.2 3.3-.3 0-4 1.6-8.3 3.6-18 8.4-41.9 19.3-59.8 27.4-2.7 1.2-13.1 6-23 10.5s-20.2 9.3-23 10.5c-2.7 1.2-7.9 3.6-11.5 5.2-3.6 1.7-10.8 4.9-16 7.3-5.2 2.4-13.5 6.2-18.5 8.5-4.9 2.3-10.3 4.8-12 5.5-1.6.7-7 3.2-11.8 5.4-4.9 2.3-9 4.1-9.2 4.1-.2 0-5 2.2-10.7 4.8-10.6 5-12.9 6.1-23.9 11-3.5 1.6-9 4.1-12.1 5.6-3.2 1.4-8.2 3.7-11 5-2.9 1.3-8.2 3.7-11.8 5.4-3.6 1.6-8.7 4-11.5 5.2-2.7 1.2-7.9 3.6-11.5 5.2-3.6 1.6-7.8 3.6-9.5 4.3-1.6.7-6.9 3.2-11.8 5.4-4.8 2.2-8.8 4-9 4-.1 0-3.5 1.6-7.4 3.5-4 2-7.5 3.6-7.7 3.6-.3 0-4.2 1.7-8.8 3.9-4.6 2.1-10.8 5-13.8 6.4-11.1 5-17.6 8-22.5 10.2-2.7 1.2-7.9 3.6-11.5 5.2-13.2 6.1-18.7 8.6-28.1 12.8-5.2 2.4-12.4 5.7-16 7.3-3.5 1.7-10.4 4.9-15.2 7.1-4.9 2.3-9 4.1-9.2 4.1-.2 0-4.5 2-9.7 4.4-5.1 2.4-11.3 5.2-13.8 6.3-2.5 1.2-6.7 3.1-9.5 4.3-4.6 2.1-11.8 5.4-25 11.5-2.7 1.3-9.5 4.3-15 6.8-5.5 2.4-13.1 5.9-17 7.7-7 3.2-10.7 5-24 11-3.8 1.7-9.2 4.2-12 5.5-16.4 7.5-20.7 9.5-21 9.5-.1 0-4.5 2-9.6 4.4-11.1 5.2-19.9 9.2-25.4 11.6-2.2 1-7.6 3.4-12 5.5-4.4 2-10.5 4.8-13.5 6.2-9.2 4.2-13.2 6-21.3 9.7-4.2 2-7.9 3.6-8.1 3.6-.2 0-4.8 2.1-10.2 4.6-13.5 6.3-18.9 8.7-25.9 11.9-3.3 1.5-9.4 4.3-13.5 6.2-4.1 1.9-9.1 4.2-11 5-1.9.9-6.6 3-10.5 4.8-6.3 3-10.8 5-23 10.5-2.2 1-7.6 3.5-12 5.5-4.4 2.1-11.8 5.4-16.5 7.5-4.7 2.1-12.4 5.6-17.3 7.9-4.8 2.2-8.9 4.1-9.1 4.1-.2 0-5.6 2.5-12.1 5.5-6.4 3-11.8 5.5-12 5.5-.2 0-5.2 2.3-11.2 5.1-5.9 2.8-12.1 5.7-13.8 6.4-1.6.8-7 3.2-11.8 5.4-4.9 2.3-9 4.1-9.2 4.1-.2 0-4.5 2-9.7 4.4-9.5 4.4-16.5 7.6-25.3 11.6-5.3 2.4-9.7 4.4-23.8 10.9-4.9 2.3-9 4.1-9.2 4.1-.2 0-5.5 2.5-12 5.5-6.4 3-11.8 5.5-12 5.5-.2 0-4.7 2.1-10.2 4.6-5.4 2.5-9.9 4.5-10.1 4.5-.1-.1-1.5.5-3 1.3s-5.8 2.9-9.7 4.7c-3.8 1.7-10.3 4.7-14.3 6.5-4 1.9-7.4 3.4-7.6 3.4-.2 0-4.6 2-9.7 4.4-5.2 2.4-14.6 6.7-20.9 9.6-12.1 5.5-21.8 9.9-28.5 13-15.4 7.1-19.8 9-20.8 9-2.2 0 1.8 2.7 8.3 5.5 3.6 1.5 9.7 4.3 13.5 6.2 8.1 4.1 6.8 4.3 25.3-4.3 6.4-3.1 13.1-6.1 14.7-6.9 1.7-.7 11.1-5 21-9.5 17.2-7.8 21.1-9.6 34.3-15.6 3.1-1.5 9.5-4.4 14-6.5 4.6-2.2 8.5-3.9 8.7-3.9.1 0 4.7-2.1 10.1-4.7 5.5-2.5 10.4-4.7 10.9-4.8.6-.2 4.7-2.1 9.3-4.3 4.5-2.3 8.6-4.1 9-4.2.4-.1 3.4-1.4 6.7-3 3.3-1.5 8.5-3.9 11.5-5.3 3-1.3 8.4-3.8 12-5.5 3.6-1.6 8.8-4 11.5-5.2 2.8-1.2 8.3-3.8 12.3-5.6 4.1-1.9 7.5-3.4 7.7-3.4.2 0 4.5-2 9.6-4.4 9.8-4.5 16.2-7.5 26.4-12.1 3.3-1.5 9.8-4.5 14.3-6.6 4.6-2.2 8.5-3.9 8.7-3.9.3 0 13-5.8 24-10.9 3.3-1.6 8.1-3.8 10.8-5 9.2-4.1 14.3-6.4 22.2-10.1 4.4-2 9.6-4.4 11.5-5.3 1.9-.8 6-2.7 9-4 3-1.4 8.4-3.8 12-5.5 3.6-1.6 9.1-4.2 12.3-5.6 8-3.6 14.9-6.8 24.2-11.2 4.4-2 8.2-3.8 8.5-3.8.3-.1 2.1-.9 4-1.7 1.9-.9 6-2.8 9-4.2 3-1.4 9.5-4.4 14.3-6.6 4.9-2.3 9-4.1 9.2-4.1.2 0 4.5-2 9.7-4.4 5.1-2.4 11.6-5.3 14.3-6.6 2.8-1.2 8.3-3.8 12.3-5.6 4.1-1.9 7.5-3.4 7.7-3.4.1 0 4.5-2 9.6-4.4 16.8-7.8 23.4-10.8 23.4-10.5 0 .2 1.4-.4 3-1.4 1.7-.9 6.2-3 10-4.8 7.2-3.2 10.7-4.8 25.8-11.8 4.9-2.3 9-4.1 9.2-4.1.1 0 4.7-2.1 10.1-4.6 10.1-4.7 15.7-7.3 25.4-11.7 3-1.3 8.5-3.9 12.3-5.6 3.7-1.7 6.9-3.1 7.2-3.1.3 0 2.8-1.1 5.5-2.5s5.3-2.6 5.7-2.6c.5 0 2.4-.9 4.3-1.9 3.6-2 18.9-9 19.5-9 .2 0 5.2-2.3 11.2-5.1 5.9-2.8 14.6-6.8 19.3-8.9 4.7-2.1 11.9-5.3 16-7.3 4.1-1.9 9.8-4.5 12.5-5.7 4.4-2 26.3-12 45.5-20.8 3.6-1.6 8.8-3.9 11.5-5.2 2.8-1.2 7.7-3.5 11-5 16.9-7.8 21.7-10 22-10 .4 0 7.5-3.3 27.3-12.6 5.1-2.4 9.4-4.4 9.6-4.4.5 0 14.6-6.5 34.1-15.6 4.4-2.1 8.2-3.8 8.5-3.8.3-.1 2.1-.9 4-1.8s6.7-3.1 10.5-4.8c3.9-1.8 9.5-4.3 12.5-5.7 3-1.4 7.1-3.2 9-4 1.9-.9 7.1-3.3 11.5-5.3 8.9-4.1 15.3-7.1 23.5-10.7 3-1.4 7.8-3.5 10.5-4.8 2.8-1.3 7.7-3.5 11-5s9.2-4.2 13-6c11.1-5.1 26.5-12.1 33-15 3.3-1.5 8.7-4 12-5.5 8.1-3.7 16.1-7.4 27.5-12.5 5.2-2.4 12.9-5.9 17-7.8 4.1-1.9 9.8-4.5 12.5-5.7 2.8-1.2 7.7-3.5 11-5s10.5-4.8 16-7.3 13.4-6.1 17.5-8c4.1-1.9 9.8-4.5 12.5-5.7 2.8-1.2 7.9-3.6 11.5-5.2 3.6-1.7 10.8-4.9 16-7.3 5.2-2.4 13.6-6.2 18.5-8.5 5-2.3 10.8-5 13-6 14.9-6.7 17.6-7.9 18.3-8.1.4-.1 2.7-1.2 5.2-2.5 2.5-1.2 6.8-3.2 9.5-4.4 2.8-1.2 7.7-3.5 11-5 8.8-4 17.2-7.9 24-11 5.7-2.6 9.2-4.2 21.5-9.7 8.6-3.9 16.1-7.3 21.5-9.8 13.1-6.1 20.1-9.2 20.8-9.3.4-.1 2-.8 3.5-1.6s6.3-3.1 10.7-5.1c9-4.1 11.8-5.4 25.9-11.9 5.4-2.5 10-4.6 10.1-4.6.2 0 4.3-1.8 9.2-4.1 4.8-2.2 10.8-5 13.3-6.1 2.5-1.1 7.4-3.4 11-5 3.6-1.7 8.8-4.1 11.5-5.3 2.8-1.3 8.2-3.8 12-5.6 3.9-1.8 7.2-3.3 7.5-3.3.3-.1 2.1-.9 4-1.8 11.7-5.5 19.3-8.8 20.2-8.8.7 0 .9 130.8.6 406.3l-.3 406.3-641.9-.3c-353.1-.2-641.8-.1-641.5.1.2.3 5.8 6 12.4 12.7l12 12.3 624.5.4c343.5.2 624.6.4 624.7.5.2.2-2.8 5.3-11.3 19.5-2.4 4-4.4 7.5-4.4 7.7 0 .3-1.2 2.4-2.7 4.8-2.3 3.6-5.2 8.5-14.3 24.2-5.9 10.2-13.1 22.4-23.2 39.5-6.3 10.7-12.5 21.5-13.9 24-1.3 2.5-2.7 4.7-3 5-.3.3-2.5 3.9-4.8 8-2.4 4.1-5.1 8.8-6.1 10.5-1 1.6-4 6.8-6.7 11.5s-6.1 10.4-7.6 12.7c-1.5 2.4-2.7 4.4-2.7 4.7 0 .2-1.7 3.3-3.9 6.7-3 5.1-29.1 49.6-37.1 63.4-6.4 11-66.3 113-68.1 116-1.1 1.6-2.2 3.7-2.6 4.5-.4.8-2.4 4.4-4.6 7.9-2.1 3.5-6.3 10.5-9.2 15.5-2.9 5-15.1 26-27.2 46.6s-22.9 39.1-24.1 41c-1.1 1.9-7.9 13.5-15.1 25.8-7.2 12.3-13.1 22.6-13.1 22.9 0 .4-.6 1.4-1.4 2.2-.7.9-2.5 3.6-3.8 6.1-1.4 2.5-5.3 9.2-8.8 15-6.7 11.3-9.6 16.5-12.6 22-1.1 1.9-2.1 3.7-2.4 4-.3.3-3.4 5.4-6.9 11.5-3.5 6-7.1 12.1-8 13.5-.9 1.4-2.1 3.4-2.7 4.5-.6 1.1-8.2 14.1-16.9 29-8.7 14.8-21.1 36.1-27.6 47.2-6.5 11.1-12.4 21.3-13.2 22.5-6.9 11.2-15.7 26.7-15.7 27.6 0 .6-.4 1.2-.8 1.4-.9.4-16.2 26.4-16.2 27.5 0 .5 6.4.9 14.3.8 11.5 0 14.4-.3 15.3-1.5 2.3-3.1 49.4-84 49.4-84.9 0-.5.4-1.1.8-1.3.8-.3 2.7-3.3 7.8-12.7 1.1-1.9 2.7-4.4 3.7-5.5.9-1.1 1.7-2.3 1.7-2.8 0-.6 7.4-13.6 13-22.8 2-3.4 26.6-45.4 28-47.9 3.4-6.1 10.4-17.8 12.1-20.3 1.1-1.5 1.9-2.9 1.9-3.2 0-.3 2.6-4.9 5.8-10.3 7.3-12.3 33.1-56.2 39.2-66.8 1-1.7 4.8-8.2 8.5-14.5 3.7-6.3 7.5-12.9 8.5-14.5.9-1.7 5.1-8.8 9.3-15.8 4.3-7.1 7.7-13 7.7-13.2 0-.2 1.7-3.2 3.9-6.7 2.1-3.5 6.5-10.8 9.7-16.3 7.8-13.5 16.4-28.1 26.6-45.5 4.7-8 9.5-16.1 10.6-18 1.1-1.9 4.2-7.3 7-12 2.9-4.7 6-10.1 6.9-12 1-1.9 2-3.7 2.4-4 1.1-1 12.9-21.9 12.9-22.8 0-.6.4-1.2.8-1.4.4-.2 8.1-12.9 17.1-28.3 9-15.4 17.9-30.5 19.6-33.5 1.8-3 5.4-9.1 7.9-13.5 2.6-4.4 5.1-8.7 5.7-9.5.5-.8 1.5-2.7 2.2-4.3.6-1.5 1.5-2.7 1.9-2.7.4 0 .8-.7.8-1.5s.5-1.5 1-1.5c.6 0 1-.4 1-.9 0-.8 1.4-3.4 7.4-13.4 1-1.8 4.3-7.5 7.3-12.7 3.1-5.2 9.9-16.9 15.3-26 5.3-9.1 14.6-24.8 20.5-35s13.3-22.8 16.4-28c3.1-5.2 6.3-10.7 7.1-12.1.8-1.5 7.1-12.2 13.9-23.8l12.3-21.2 4.6 7.8c2.5 4.3 5.3 9 6.2 10.6 1.6 2.9 6 10.4 22.3 38.2 14.2 24.1 19.6 33.3 22.5 38.5 1.3 2.5 3.3 5.7 4.3 7.2 1.1 1.4 1.9 3.1 1.9 3.7 0 .6.5 1.1 1 1.1.6 0 1 .5 1 1 0 .6 5.5 10.4 12.1 21.8 6.7 11.4 13 22 13.9 23.7 1 1.6 4.8 8.2 8.5 14.5 3.7 6.3 7.6 13.1 8.7 15 3 5.3 12.8 21.9 15.8 27 1.5 2.5 5.6 9.4 9.1 15.5 3.5 6 6.5 11.2 6.9 11.5.3.3 1.5 2.5 2.8 5 1.3 2.5 5 9 8.3 14.5 3.4 5.5 7.5 12.5 9.2 15.5 1.7 3 4.7 8.2 6.7 11.5 2 3.3 4.8 8 6.2 10.5 1.4 2.5 8 13.9 14.7 25.2 6.6 11.4 12.1 21.2 12.1 21.7s.4 1.1.8 1.3c.4.1 2.6 3.4 4.8 7.2 2.1 3.8 4.6 8.1 5.4 9.5 14.3 24.7 18.6 31.7 19.2 31.9.4.2.8.8.8 1.4 0 .9 32.8 57.7 34 58.8.3.3 1.1 1.6 1.8 3 .6 1.4 2 3.8 2.9 5.5 1 1.6 5.6 9.5 10.3 17.5 4.6 8 8.8 14.6 9.2 14.8.4.2.8.8.8 1.4 0 .5 4.8 9.1 10.6 19.1 5.9 10 12.9 22 15.6 26.7 2.8 4.7 5.8 9.8 6.8 11.5.9 1.6 5.7 9.7 10.5 18 4.8 8.2 9.7 16.6 10.9 18.6 1.1 1.9 4.8 8.2 8.1 14 3.3 5.7 6.3 10.5 6.7 10.7.4.2.8.8.8 1.2 0 .5 1.4 3.3 3.1 6.2 1.8 2.9 3.9 6.6 4.9 8.3.9 1.6 9.5 16.3 19 32.5s18.4 31.5 19.8 34c1.4 2.5 3.2 5.6 4.1 7 3.3 5.2 4.1 6.5 4.8 8 .9 2 14 24.2 15 25.5.4.6 1.9 3.1 3.2 5.6l2.3 4.5 14.7-.2c8-.1 14.7-.2 14.8-.3.2-.1-1.8-3.6-4.3-7.9-2.6-4.2-5.5-9.3-6.6-11.2-1.1-1.9-2.4-4-2.8-4.5-.4-.6-1.8-3-3.2-5.5-1.4-2.5-6.5-11.3-11.3-19.5-4.9-8.3-11.5-19.7-14.9-25.5-3.3-5.8-6.2-10.7-6.5-11-.3-.3-1.4-2.1-2.5-4-2-3.8-2.7-5-10.6-18.5-2.9-5-7.1-12.2-9.3-16-2.2-3.9-10.7-18.5-19-32.5-8.2-14-15.7-26.9-16.7-28.5-.9-1.7-6.3-10.9-12-20.5-5.6-9.6-11.1-19.1-12.2-21-8-14.1-14.3-24.6-15-24.8-.4-.2-.8-.8-.8-1.4 0-.5-2.6-5.3-5.7-10.6-3.2-5.4-6-10.2-6.2-10.7-.2-.6-1.5-2.7-2.8-4.9-1.4-2.1-5.9-9.8-10-17-4.2-7.2-12.8-21.9-19.1-32.6-6.2-10.7-13.2-22.7-15.5-26.5-2.2-3.9-5.2-9-6.7-11.5-10.8-18.1-17-29-17-29.8 0-.6-.4-1.2-.8-1.4-.7-.3-6.6-10.2-16-26.8-1.5-2.5-3-4.7-3.4-4.8-.4-.2-.8-.8-.8-1.4 0-.5-6.2-11.6-13.9-24.6-7.6-13-18.5-31.6-24.1-41.2-5.6-9.6-11-18.9-12-20.5-1-1.7-3.3-5.7-5.2-9-12.8-22.3-19.3-33-20-33.3-.4-.2-.8-.8-.8-1.4 0-.9-11.8-21.8-12.9-22.8-.4-.3-1.9-3.1-3.6-6.2-1.6-3.2-3.3-5.8-3.7-5.8-.5 0-.8-.9-.8-1.9 0-1.1-.4-2.1-.8-2.3-.4-.2-3.9-5.7-7.7-12.3-3.8-6.6-9.4-16.3-12.5-21.5-3.1-5.2-9.4-16-14-24s-8.8-14.7-9.2-14.8c-.4-.2-.8-.8-.8-1.3 0-.6-2.3-4.9-5.1-9.7-2.9-4.8-6-10.1-6.9-11.7-1.7-3-10.6-18.3-14-24-1-1.7-3.8-6.6-6.4-11-2.6-4.4-5.1-8.7-5.6-9.5-.5-.8-2.1-3.5-3.4-6-1.4-2.5-3.4-5.8-4.5-7.4-1.1-1.7-1.8-3.3-1.6-3.6.2-.4 286.8-.5 636.8-.3l636.3.4 3-2.8c1.6-1.6 7.9-6.8 14-11.6 6.2-4.8 11.6-9.3 12.2-10 1.1-1.3 9.4-1.2-956.5-1.6l-356.2-.1.2-406.6c.2-406 .2-406.5 2.2-405.9 1.1.3 2.5.7 3 .9.6.2 5.9 2.6 11.9 5.4 5.9 2.9 11 5.2 11.1 5.2.2 0 4.8 2.1 10.2 4.6 9.4 4.4 14.2 6.6 15.3 6.8.3.1 2.8 1.3 5.5 2.7 2.8 1.4 5.2 2.6 5.5 2.6.3.1 4.6 2 9.5 4.3 5 2.3 11 5.1 13.5 6.2 2.5 1.1 6.8 3 9.5 4.3 9.4 4.4 21 9.7 25 11.5 2.2 1 8.4 3.9 13.8 6.4 5.4 2.5 10 4.6 10.2 4.6.6 0 20 9 23 10.7 1.7 1 3.2 1.7 3.5 1.7.5-.1 11.1 4.7 19 8.4 1.9.9 3.7 1.7 4 1.7.3.1 5.4 2.5 11.3 5.3 6 2.9 11 5.2 11.2 5.2.3 0 9.5 4.2 25.3 11.6 5.2 2.4 9.5 4.4 9.7 4.4.3 0 6.5 2.8 23 10.5 2.8 1.3 7.9 3.6 11.5 5.3 65.4 29.9 75.2 34.3 84 38.4 12.5 5.8 16.5 7.6 21.5 9.8 2.8 1.3 8.8 4.1 13.5 6.2 4.7 2.2 12.8 5.9 18 8.3 5.2 2.4 13.6 6.2 18.5 8.5 11.2 5.3 17.8 8.3 18.5 8.4.3.1 2.1.9 4 1.8s6.5 3 10.3 4.7c10.4 4.8 19.6 9 26.2 12.1 3.3 1.5 8 3.7 10.5 4.8 2.5 1.1 8.1 3.7 12.5 5.7s15.4 7.1 24.5 11.2c16.2 7.4 24.5 11.2 34.5 15.8 2.8 1.3 8.2 3.7 12 5.5 3.9 1.7 9.7 4.4 13 6 3.3 1.5 8.3 3.8 11 5 2.8 1.2 9.2 4.2 14.3 6.6 5.2 2.4 9.5 4.4 9.7 4.4.6 0 19.9 9 23 10.7 1.7 1 3 1.6 3 1.5 0-.3 9.7 4 21.5 9.5 6.4 3 12.3 5.6 13 5.8.3.1 4.1 1.9 8.5 3.9 4.4 2.1 10 4.7 12.5 5.8 2.5 1.1 8.3 3.9 13 6.1 4.7 2.2 10.3 4.7 12.5 5.7 5.5 2.4 37.9 17.3 49.5 22.7 5.2 2.5 10 4.6 10.5 4.7.6.2 5.1 2.2 10 4.5 5 2.4 11 5.2 13.5 6.3 2.5 1.1 8.2 3.8 12.8 5.9 4.6 2.2 8.5 3.9 8.6 3.9.2 0 4.6 2 9.7 4.4 5.2 2.4 11.9 5.5 14.9 6.9 3 1.3 8.2 3.7 11.5 5.2 9 4.1 15.2 6.9 24 11 7.3 3.4 12.2 5.6 13.5 6 .3.1 5.5 2.5 11.5 5.4 6.1 2.9 11.5 5.4 12 5.6.6.1 4.2 1.7 8 3.5 9.7 4.5 18.3 8.5 26.3 12.1 7.2 3.3 14.7 6.8 22.7 10.4 17.8 8.2 21.3 9.8 23.5 10.8 1.4.6 2.7 1.1 3 1.2.3.1 4.6 2.1 9.5 4.4 5 2.3 10.4 4.8 12 5.6 1.7.7 7.9 3.6 13.8 6.4 6 2.8 11 5.1 11.2 5.1.2 0 3.9 1.6 8.2 3.6 4.3 2 10.7 5 14.3 6.6 10.1 4.6 17.1 7.9 21.5 9.8 2.2 1 8.5 4 14 6.5 5.5 2.6 13.8 6.4 18.5 8.5 4.7 2.1 11.9 5.4 16 7.3 4.1 1.9 9.8 4.5 12.5 5.7 2.8 1.2 9.7 4.5 15.4 7.1 5.7 2.7 10.5 4.9 10.7 4.9.3 0 9.8 4.3 21.9 10 3.3 1.5 8.3 3.8 11 5 5.4 2.4 13.8 6.3 25 11.5 3.9 1.8 9.3 4.2 12 5.5 4.9 2.2 12.5 5.7 23.3 10.6 2.8 1.3 7.8 3.6 11 5 3.1 1.5 10.4 4.9 16.1 7.5 5.7 2.7 10.5 4.9 10.7 4.9.2 0 3.9 1.6 8.1 3.6 4.3 2 10.3 4.7 13.3 6.1 3 1.4 8.2 3.8 11.5 5.3 3.3 1.5 8.7 4 12 5.5 3.3 1.5 8.3 3.7 11 5 15.9 7.4 22.7 10.5 23 10.5.1 0 4.9 2.2 10.6 4.9 5.7 2.6 12.7 5.9 15.4 7.1 2.8 1.3 10.2 4.6 16.5 7.5 11.3 5.2 16.3 7.5 30.8 14.1 4.1 1.9 7.7 3.4 8 3.4.4 0 7.1-3.3 15-7.2l14.2-7.3-6.3-3c-6.3-2.9-11.7-5.4-26.7-12.3-4.1-1.8-10.2-4.6-13.5-6.2-3.3-1.5-16.1-7.4-28.5-13-12.4-5.6-24.6-11.3-27.2-12.6-2.7-1.3-4.9-2.4-5-2.4-.3.1-10.9-4.6-21.8-9.7-6.6-3.1-11.5-5.3-13-5.8-.3-.1-4.5-2.1-9.5-4.4-4.9-2.3-9.9-4.6-11-5.1-1.1-.5-7.3-3.4-13.9-6.5-6.5-3-12-5.5-12.2-5.5-.1 0-4-1.7-8.6-3.9-19.2-9-25.2-11.7-27.8-12.6-.6-.2-11.8-5.4-24.9-11.6-5.7-2.7-10.5-4.9-10.7-4.9-.1 0-4-1.7-8.6-3.9-4.6-2.1-10.5-4.9-13.3-6.1-8.5-3.9-17.8-8.1-21.5-9.8-1.9-.9-3.7-1.7-4-1.8-.3 0-3.9-1.6-8-3.6-4.1-1.9-9.7-4.6-12.5-5.8-2.7-1.2-8.4-3.8-12.5-5.7-4.1-1.9-9.3-4.3-11.5-5.3-2.2-1-8.9-4.1-14.9-6.9-5.9-2.8-11-5.1-11.2-5.1-.1 0-4.2-1.9-9.1-4.2-4.8-2.3-9-4.2-9.3-4.3-1.7-.6-7.2-3-40.4-18.5-3.8-1.7-11.5-5.2-17-7.7-5.6-2.5-12.1-5.5-14.6-6.7-2.5-1.3-4.7-2.3-5-2.4-.5-.1-14.4-6.3-20-9-1.9-.9-3.7-1.7-4-1.8-.3 0-3.9-1.6-8-3.6s-9.7-4.6-12.5-5.8c-2.7-1.3-7.8-3.6-11.2-5.1-3.5-1.6-9.3-4.3-13-6-3.8-1.7-8.4-3.8-10.3-4.7-1.9-.9-3.7-1.7-4-1.8-.3 0-3.6-1.5-7.5-3.3-11.9-5.6-19.8-9.2-25.5-11.8-3-1.4-10.2-4.7-15.9-7.4-5.7-2.7-10.5-4.9-10.7-4.9-.1 0-4.2-1.8-9.1-4.1-4.8-2.2-10.8-5-13.3-6.1-10.7-4.8-15.8-7.2-36-16.5-3-1.4-5.7-2.6-6-2.6-.3 0-4-1.8-8.2-3.9-4.3-2.1-8-3.8-8.2-3.8-.2 0-4.6-2-9.8-4.4-9.2-4.3-15.7-7.2-25.3-11.6-2.7-1.2-8.8-4-13.3-6.1-4.6-2.2-8.5-3.9-8.7-3.9-.2 0-6-2.7-13-6s-12.8-6-13-6c-.2 0-4.6-2-9.7-4.4-5.1-2.4-11.5-5.4-14.3-6.6-2.7-1.2-8.7-4-13.3-6.1-4.6-2.2-8.5-3.9-8.7-3.9-.2 0-4.8-2.1-10.2-4.6-5.4-2.5-11.1-5.2-12.8-5.9-1.6-.7-6.6-3-11-5-10.3-4.8-28.4-13.1-36-16.5-2.2-1-9.3-4.4-15.9-7.4-6.5-3.1-12-5.6-12.2-5.6-.2 0-5.2-2.3-11-5-5.8-2.8-10.8-5-10.9-5-.3 0-16.2-7.3-23-10.5-8-3.8-24.8-11.5-25.1-11.5-.2 0-4.7-2.1-10.1-4.6-5.4-2.5-13.6-6.3-18.3-8.4-4.7-2.1-12.1-5.4-16.5-7.5-8.2-3.8-12.9-5.9-25-11.5-15.7-7.2-18.1-8.3-21.5-9.9-1.9-.8-3.7-1.6-4-1.7-.3 0-5.4-2.4-11.4-5.2-5.9-2.9-11-5.2-11.2-5.2-.1 0-4.7-2.1-10.1-4.6-8.6-4.1-13.6-6.3-15.3-6.9-.3-.1-4.1-1.9-8.5-3.9-4.4-2.1-9.3-4.4-11-5.1-1.6-.8-8.3-3.9-14.9-6.9-6.5-3.1-12-5.6-12.3-5.6-.2 0-3.2-1.4-6.6-3.1-3.4-1.7-6.3-3-6.4-3-.4.1-12.2-5.4-35.7-16.3-5.4-2.5-10.5-4.6-11.2-4.6-.8 0-1.4-.3-1.4-.8s-7.9-4.3-10-4.8c-.3 0-3.9-1.6-8-3.6-7.9-3.7-15.6-7.3-25.5-11.8-7.3-3.3-14.2-6.5-25.8-11.9-4.9-2.2-9.1-4.1-9.2-4.1-.2 0-5.6-2.5-12-5.5-6.5-3-11.9-5.5-12-5.5-.2 0-4.6-2-9.7-4.4-5.1-2.4-11.5-5.4-14.3-6.6-2.7-1.2-9.2-4.2-14.4-6.6-5.1-2.4-9.5-4.4-9.7-4.4-.1 0-5.1-2.3-10.9-5-5.8-2.8-10.8-5-10.9-5-.4 0-15.9-7.1-25.1-11.5-2.7-1.3-7.9-3.7-11.5-5.3-3.6-1.6-14.1-6.5-23.5-10.7-9.3-4.3-20.4-9.3-24.5-11.2-4.1-1.9-8.8-4.1-10.5-4.8-1.6-.8-8.3-3.9-14.9-6.9-6.5-3.1-12.4-5.6-13-5.6-1.1 0-4.6 6.9-4.6 9.1 0 2.3-2.7-1.1-4-5.1-.8-2.5-1.9-4-2.9-3.9-.9 0-5.4 1.8-10.1 4z"/><path d="M5316.9 2001.4c-.2.2-7.8.7-16.9 1.1-31.5 1.2-58 3-89.5 6.1-2.7.2-7 .7-9.5.9-2.5.2-6.3.7-8.5.9-2.2.3-6.5.8-9.5 1.1-3 .3-6.6.7-8 1-1.4.2-5 .6-8 .9-3 .4-6.6.8-7.9 1.1-1.3.2-4.7.7-7.5 1-2.8.2-6 .7-7.2.9-1.2.2-4.5.7-7.4 1.1-2.9.4-6.2.9-7.4 1.1-1.1.2-3.6.6-5.6.9-2 .3-4.5.7-5.5.9-1.1.2-4 .7-6.5 1-2.5.3-5.6.8-7 1.1-2.9.6-6.7 1.3-11.2 2-1.8.3-4 .8-4.8 1-.8.2-3.5.7-6 1-2.4.4-4.7.8-5 1-.3.2-2.6.6-5 1-2.5.4-7.2 1.3-10.5 2-3.3.8-7.3 1.6-9 1.9-7.2 1.3-9.6 1.9-19.3 4.1-5.6 1.4-11.3 2.7-12.5 2.9-1.2.2-4.2.9-6.7 1.6-2.5.7-5.2 1.3-6 1.5-.8.2-7.8 1.9-15.5 3.9s-15.1 3.9-16.4 4.2c-1.4.3-2.8.7-3.3 1-.4.3-1.6.7-2.6.9-3.6.7-11 2.7-18.7 5.2-4.4 1.4-8.4 2.6-9 2.7-.5.2-3 .9-5.5 1.6-2.5.7-4.9 1.4-5.5 1.6-2.1.4-49.1 16.3-52 17.5-1.6.6-3.4 1.3-4 1.5-1.2.3-25.7 9.7-30 11.5-1.6.6-3.4 1.3-4 1.5-1.3.3-20 8-24 9.8-1.6.8-5.8 2.6-9.3 4-3.4 1.5-9.2 4-12.7 5.6-3.6 1.7-9.5 4.4-13.2 6.1-43.3 19.9-95.1 48.4-136.6 75.2-4.8 3.1-9.2 5.7-9.7 5.7-.4 0-1 .3-1.2.7-.1.5-8.4 6.2-18.2 12.8-9.9 6.6-18.5 12.6-19.2 13.2-.7.7-1.5 1.3-1.8 1.3-.5 0-7.6 5-16.1 11.2-47 34.6-74.8 56.9-110.4 88.8-9.6 8.5-19.7 17.5-22.5 20-10.4 9.1-66.6 66-80 81-7.6 8.5-15.3 17.1-17.1 19-5.8 6.4-31.9 37.4-37.5 44.5-3 3.9-5.7 7.2-6 7.5-3.4 3-39.4 51.1-55.2 73.5-11.6 16.6-35.3 52.2-43.8 65.9-3 4.8-7.3 11.6-9.4 15-4.3 6.8-29.6 50-34.3 58.6-1.7 3-4.5 8.2-6.3 11.5-6.7 12.1-7.8 14.2-13.8 25.5-8.7 16.7-22.9 44.8-28.9 57.5-10.6 22.6-15.3 32.7-15.3 33.2 0 .3-1 2.6-2.3 5.2-1.3 2.5-2.4 4.8-2.5 5.1-.1.7-3.1 7.8-5.2 12.5-1 2.2-3.2 7.4-4.9 11.5-1.8 4.1-3.6 8.4-4.1 9.5-.5 1.1-3.4 8.5-6.5 16.5s-6 15.4-6.5 16.5c-1.8 4.5-3.2 8.4-3.1 9 .1.3-.5 1.8-1.3 3.3-1.4 2.8-16.9 46.4-18.1 51.2-.1.3-.4 1.2-.8 2-1.3 3.4-3.8 11.2-7.7 24-2.2 7.4-4.8 15.7-5.7 18.5-.8 2.7-1.7 5.9-1.9 6.9-.2 1.1-1 4-1.8 6.5-1.7 5.1-6.5 22.9-7.1 26.3-.3 1.1-.9 3.5-1.5 5.3-.6 1.8-1.3 4.2-1.5 5.4-.4 1.8-1 4.2-1.9 7.6-.1.5-.5 1.9-.9 3-.3 1.1-.8 3.1-1.1 4.5-.2 1.4-.9 4.3-1.4 6.5-.6 2.2-1.3 5.1-1.6 6.5-.6 2.8-.8 3.7-3 13.3-1.5 6.3-1.8 8-3.1 15.2-.3 1.6-.8 3.8-1.1 4.7-.5 1.6-.9 3.5-1.9 8.8-.3 1.4-.7 3.6-1 5-.3 1.4-.7 3.8-1 5.5-.3 1.6-1 5.2-1.5 8-.5 2.7-1.2 6.3-1.5 8-1 6.2-1.6 9.1-2 11.5-1.1 5.3-1.5 7.6-2 11.5-.7 4.4-1.3 8.4-2.1 13-.6 3.3-1.3 8-1.9 13.5-.2 1.9-.6 4.5-.9 5.7-.3 1.2-.7 4.9-1.1 8.2-.3 3.3-.8 7-1 8.3-.3 1.2-.7 4.7-1 7.8-.3 3.1-.7 6.6-1 7.8-.2 1.3-.7 5.1-1 8.5-.3 3.4-.7 7.6-.9 9.3-.3 1.7-.7 6.4-1.1 10.5-.4 4.1-.8 9-1 10.9-.5 5.2-2 25.2-3 40.5-2.7 40.6-2.7 130.4 0 170.5.2 3 .6 9.8 1 15 .3 5.2.8 11.7 1 14.5 1.5 18.8 1.7 21.7 3.1 34.5.3 3 .7 7.1.9 9 1 9.8 1.6 14.9 2 16.9.2 1.2.7 4.9 1 8.2.4 3.3.8 6.9 1 7.9.2 1 .6 4.5 1 7.7.3 3.2.8 6.5 1 7.3.2.8.7 3.5 1 6 .2 2.5.7 5.4.9 6.5.2 1.1.7 4 1 6.5.3 2.5.8 5.5 1 6.6.2 1.2.7 3.9 1 6 .6 4 2.2 12.9 3.1 17.4.3 1.3.7 4.2 1.1 6.4.3 2.2.7 4.3.9 4.6.2.3.6 2.1.9 4 .3 1.9.8 4.6 1.1 6 .3 1.4.8 3.8 1 5.5.3 1.6.8 3.8 1.1 4.8.3 1.1.7 2.9.9 4 .3 2.2 2.9 14.5 3.8 18.2.3 1.1 1.5 6 2.6 11 1.1 4.9 3.2 13.5 4.6 19 1.5 5.5 2.9 11.1 3.1 12.5.3 1.4.8 3.4 1.1 4.5.4 1.1.8 2.5.9 3.1.1.7 1.4 5.4 2.9 10.5 1.5 5.2 2.9 10.1 3.1 10.9 2.7 10.9 8.4 29.1 17.9 57.7 4.7 13.8 9 26.4 9.7 28 .6 1.5 1.2 3.2 1.3 3.8.3 1.1 10.1 26.7 11.8 30.5.5 1.4 1.1 2.7 1.1 3 .4 1.6 4.1 10.7 4.6 11.5.4.5 1.1 2.1 1.5 3.5.4 1.4 1.6 4.3 2.6 6.5.9 2.2 4.1 9.4 6.9 16 2.9 6.6 5.5 12.4 6 13 .4.5 1.1 2.1 1.5 3.4 1.5 4.9 21.5 46.2 31.8 65.6 3.5 6.6 7.6 14.5 9.2 17.5 1.6 3 3.3 5.6 3.7 5.8.4.2.8.9.8 1.6 0 1.7 21.6 38.9 35.8 61.6 16.7 26.8 51.8 78.5 62.6 92.1 1.2 1.4 2.8 3.6 3.6 4.8.8 1.2 2.3 3.2 3.2 4.4.9 1.2 6.8 8.7 13 16.7 47.8 61.7 96 113.8 156.8 169.6 8.4 7.7 35.6 31.2 43 37.1 2 1.5 4.2 3.3 5 4 9.1 7.6 33.9 26.7 44.5 34.3 5 3.6 9.2 6.7 9.5 7.1 1.2 1.4 28.1 19.9 29 19.9.6 0 1 .4 1 .8s2.2 2.1 5 3.7c2.7 1.7 5 3.3 5 3.7 0 .5.4.8.9.8s3.6 1.8 6.8 3.9c8.5 5.7 22.3 14.4 26.3 16.7 1.9 1 3.7 2.2 4 2.5.5.5 25.4 15.4 33.3 19.8 2 1.2 5.2 2.9 7 3.9 19.6 11.2 31.6 17.5 62.4 32.7 16 8 29.3 14.5 29.6 14.5.4 0 11.7 5.1 21.7 9.8 1.9.9 3.7 1.7 4 1.7.3.1 2.3.9 4.5 1.9 6.7 2.9 19 8 19.5 8.1.3.1 2.3.9 4.5 1.9 12.4 5.4 53.7 21 56.8 21.5.4 0 2.1.8 3.7 1.6 1.7.9 3 1.3 3 .9s.6-.2 1.3.3c1.5 1.2 53.1 18.3 59.7 19.8.8.2 3.5 1 6 1.8 5.4 1.8 22.7 6.7 25.5 7.3 1.1.2 3.1.8 4.5 1.4 2.4.9 55.8 14.6 60.6 15.4 1.3.3 3.2.7 4.2 1 .9.3 2.8.7 4.2 1 1.4.3 3.6.8 5 1.1 1.4.3 3.8.8 5.4 1.1 1.6.2 3.2.6 3.5.8.3.2 2.2.7 4.1 1 1.9.3 4.5.8 5.8 1.1 5.1 1.2 6.8 1.5 9.2 2 4.2.8 7.4 1.5 10 2 1.4.3 4 .8 5.9 1.1 1.8.3 4.2.8 5.2 1 5.5 1.2 12.7 2.6 15.6 2.9 1.2.2 3.5.6 5.2 1 1.6.3 4.4.8 6.1 1 1.8.3 3.9.6 4.9.9.9.3 3.4.8 5.6 1.1 2.3.3 5.2.8 6.5 1 1.4.3 4.5.8 7 1.1 2.5.3 4.7.8 5 .9.3.2 3.3.7 6.5 1 3.3.4 6.9.9 8 1.1 1.1.3 3.5.7 5.3.9 10.7 1.6 10.1 1.5 21.7 3 2.2.3 5.1.7 6.5.9 2.2.4 9.7 1.3 17 2.1 4.1.4 13.3 1.6 16 2 1.4.2 5.2.7 8.5 1 11.8 1.1 16.1 1.5 20 2 2.2.2 7.4.7 11.5 1 4.1.4 8.6.8 10 1 1.4.2 6.8.7 12 1 5.2.4 11.1.8 13 1 1.9.2 8.2.7 14 1 5.8.4 12.8.8 15.5 1 4.8.4 26.1 1.4 39.5 2.1 51.6 2.3 142.1 2.3 196-.1 30.3-1.3 62.1-3.2 83-5 3.6-.3 9.2-.8 12.5-1 3.3-.3 8-.7 10.5-.9 2.5-.2 8.1-.7 12.5-1.1 4.4-.4 8.8-.9 9.9-1.1 1-.2 4.9-.6 8.6-.9 3.7-.3 7.7-.7 8.8-1 1.2-.2 4.9-.6 8.4-1 3.5-.3 7.9-.8 9.8-1 1.9-.3 5.8-.7 8.5-1 2.8-.4 6.1-.8 7.5-1 1.4-.2 4.5-.7 7-1 2.5-.3 5.6-.8 7-1 1.4-.2 4.8-.7 7.5-1 2.8-.3 6.1-.7 7.5-1 1.4-.2 4.3-.6 6.5-1 2.3-.3 5-.7 6-.9 1.1-.2 4-.7 6.5-1 2.5-.3 5.6-.8 7-1.1 1.3-.2 4.2-.7 6.5-1 2.2-.3 4.7-.8 5.5-1 .8-.2 3.5-.7 6-1 2.5-.3 5.2-.8 6-1 .8-.2 3.1-.6 5-.9 1.9-.3 4.6-.8 6-1.1 1.4-.3 4-.7 5.9-1 1.8-.2 4.1-.7 5-.9.9-.3 3-.8 4.6-1.1 7.2-1.2 9.1-1.6 10.5-2 .8-.2 2.9-.7 4.5-1 4.1-.7 13.3-2.5 20.5-4.1 1.4-.3 3.6-.7 5-1 1.4-.3 5.4-1.2 9-2 3.6-.9 7.4-1.7 8.5-2 2.6-.5 6-1.3 8.8-2 1.2-.3 3.2-.7 4.4-1 1.2-.2 10.2-2.5 20-4.9 9.8-2.5 18.5-4.7 19.3-4.9.8-.2 3.5-1 6-1.7s4.7-1.3 5-1.4c1.3-.2 11.8-3.2 24-6.7 7.4-2.2 15.5-4.6 18-5.3 2.5-.7 8.6-2.5 13.5-4.1 5-1.5 9.2-2.9 9.5-2.9.3-.1 1.9-.5 3.5-1 1.7-.4 3.6-1.2 4.3-1.8.6-.5 1.2-.7 1.2-.4 0 .4 41.3-13 46-15 .8-.3 1.7-.7 2-.8 2-.5 11.7-3.9 12.5-4.4.6-.3 1.2-.6 1.5-.6.3 0 1.9-.5 3.5-1.2 1.7-.6 9.3-3.5 17-6.3 15.9-5.9 30.9-11.6 34.3-13 2.8-1.3 3.3-1.5 23.2-9.5 9.1-3.7 18.9-7.8 21.8-9.1 2.9-1.3 5.5-2.4 5.7-2.4.5 0 10.5-4.4 31.5-13.7 1.9-.9 5.3-2.4 7.5-3.3 2.2-1 8.5-3.9 14-6.5 5.5-2.5 14.1-6.5 19-8.8 10.2-4.7 88.6-44.1 101.2-50.8l8.3-4.4.1-420c.1-231 .2-426.3.4-434 .5-26.2 2.5-69.5 4-84.5.2-1.9.6-6.9 1-11s.8-9.3 1.1-11.5c.2-2.2.6-6.3.9-9 .3-2.8.7-6.1 1-7.5.4-2.5 1.5-11.2 2-16 .2-1.4.6-4 .9-5.8 1.1-6 1.7-9.7 2.1-12.5.2-1.6.6-4 1-5.5.3-1.5.7-3.6.9-4.7 3.7-18.3 8.6-37.3 11.9-46 .7-1.7 1.2-3.2 1.3-3.5 0-.3.6-1.9 1.3-3.5.7-1.7 1.4-3.5 1.5-4 .6-3 9.1-19.2 14.1-27 26.5-41 65.3-67.7 118.5-81.5 2.5-.7 5.4-1.4 6.5-1.6 1.1-.2 3.1-.6 4.5-.9 1.4-.3 3.6-.8 5-1 1.4-.2 4.1-.7 6-1 4.2-.8 5.9-1.1 13-1.9 3-.4 6.9-.9 8.5-1.1 9.3-1.2 30.7-1.9 58.3-1.9l31.2-.1V3264l-512.7.2-512.8.3v36.7c0 20.3.2 36.8.5 36.9.3.1 7 .2 15 .4 37.8.7 72.1 2.5 94.5 5 2.8.3 7.3.7 10 1 2.8.3 6.1.7 7.5 1 1.4.3 4.3.7 6.5 1 3.8.4 8 1 15 2.1 1.7.3 3.7.7 4.5.9.8.2 3.1.6 5 .9 1.9.3 4.6.8 6 1.2 1.4.3 3.4.7 4.5.9 1.9.4 3.4.7 8.5 2 1.1.3 3 .8 4.3 1.1 14.9 3.7 34 11 45.8 17.5 4 2.1 7.3 3.9 7.5 3.9.6 0 21.1 13.9 24.9 16.9 29.7 23.3 53.7 56.5 64.5 89.2 3.8 11.6 8.4 31.1 11 46.9.7 4.1 1.4 8.4 1.6 9.5.2 1.1.6 3.8.9 6 .2 2.2.7 6 1 8.5.8 5.7 1.3 10.9 2 18.5.3 3.3.8 7.6 1 9.6.8 6.2 1.7 20.2 3 43.4.4 7.7 1 17.6 1.2 22 .3 4.4.7 195.7 1 425.1l.4 417.2-6.3 3.5c-6.3 3.5-8.6 4.7-22.2 12.1-8.9 4.8-46.3 23.5-53.6 26.9-3 1.4-8.9 4.1-13 6-4.1 1.9-11.5 5.1-16.5 7.2-4.9 2.1-9.4 4.2-9.9 4.7-.6.4-1.5.8-2.2.8-.6 0-3.8 1.2-7 2.7-3.3 1.5-6.1 2.8-6.4 2.8-.3 0-6.3 2.4-13.5 5.2-7.1 2.8-20.9 7.9-30.5 11.3-9.6 3.4-18.2 6.5-19 6.8-.8.3-1.9.6-2.5.7-.5.2-6.6 2.2-13.5 4.5s-13.3 4.4-14.3 4.5c-1 .2-3.2.9-5 1.5-3.4 1.1-27.5 8-29.2 8.4-.5.1-1.6.5-2.2.9-.7.5-1.3.6-1.3.3 0-.2-1.5 0-3.2.5-1.8.6-4.1 1.2-5 1.5-3.7.9-6.4 1.5-8.5 2-1.2.2-3.5.9-5 1.5-1.6.6-2.9 1-3.1.9-.1-.1-1.5.1-3 .4-5.1 1.2-7.7 1.7-10.2 2.2-1.4.3-4.1.9-6 1.4-2.8.7-14.8 3.2-31.5 6.6-1 .2-3.7.6-5.9 1-2.2.3-4.3.7-4.6.9-.3.1-2.5.6-5 .9-2.5.3-5.6.8-7 1.1-2.4.5-8.4 1.4-12.5 2-5.2.7-11.2 1.6-13.5 2-1.4.3-4.5.7-7 1-2.5.3-6.3.8-8.5 1.1-2.2.3-5.8.7-7.9.9-2.1.3-5.5.7-7.5.9-2 .3-6.5.8-10.1 1.1-3.6.3-8.1.8-10 1-1.9.2-7.1.7-11.5 1-4.4.3-10.5.8-13.5 1-5.7.5-23.4 1.5-37.5 2-10 .5-66.6.5-76 .1-6.9-.3-26.7-1.6-33.5-2.1-10.8-.9-34.8-3.4-38-4-.8-.2-4.4-.6-8-1-3.6-.4-7.4-.9-8.5-1.1-2-.4-8.6-1.4-12-1.9-1.1-.2-3.6-.6-5.5-1-1.9-.3-4.6-.8-6-1-1.4-.2-5-.9-8-1.5s-6.6-1.3-8-1.5c-1.4-.2-5-.9-8-1.5s-6.6-1.3-8-1.6c-1.4-.3-3.3-.7-4.2-1-1-.3-2.8-.7-4-1-1.3-.2-3.3-.6-4.5-.9-1.3-.3-3.1-.7-4.1-.9-1-.2-9.9-2.5-19.8-5.1-9.8-2.5-18.6-4.8-19.4-5-.8-.2-4.6-1.3-8.5-2.5-3.8-1.3-7.7-2.4-8.5-2.5-.8-.2-1.5-.4-1.5-.5 0-.1-.7-.3-1.5-.5s-5.1-1.5-9.5-3-8.4-2.8-9-2.9c-.5-.2-1.7-.5-2.5-.9-.8-.3-8.7-3.1-17.5-6.2s-16.9-6-18-6.5c-1.1-.5-9-3.6-17.5-7-14.6-5.8-25.1-10.3-36.5-15.5-2.7-1.3-8.1-3.7-12-5.5-41-18.4-112.1-58.6-143.8-81.2-3.7-2.6-6.9-4.8-7.2-4.8-.3 0-1.3-.7-2.2-1.5-1-.8-5.8-4.4-10.8-7.9-4.9-3.6-9.4-6.9-10-7.3-.5-.5-5-3.9-10-7.8-47.7-36.8-101.4-88.8-140.4-136-4.5-5.5-9-10.9-9.9-12-1-1.1-3.6-4.3-5.7-7-2.2-2.8-4.2-5.2-4.5-5.5-2.9-2.7-41.6-56.1-45.5-62.8-1.1-1.7-2.3-3.2-2.7-3.2-.4 0-.8-.4-.8-1 0-1.1-10.2-16.4-11.2-16.8-.5-.2-.8-.7-.8-1.2s-3.8-6.9-8.5-14.4c-4.7-7.4-8.5-13.9-8.5-14.4 0-.6-.3-1.2-.8-1.4-.6-.2-6.2-9.2-10.8-17.3-23.5-41.4-28.3-50.3-46.2-86.5-8.1-16.2-14.7-29.7-14.8-30-.1-.9-2.1-5.3-5.2-12-6.5-14-8.5-18.5-8.8-19.5-.1-.6-2.8-6.9-5.9-14-3.1-7.2-6-13.9-6.4-15-3.7-8.8-4.6-11-4.7-11.5 0-.3-.5-1.6-1.1-3-.6-1.4-1-2.7-1-3 0-.3-.6-1.6-1.3-3-.8-1.4-1.5-2.7-1.6-3-.1-.7-1.3-3.7-3.9-10.5-1.3-3.3-4.2-11.2-6.5-17.5-2.3-6.3-4.6-12.6-5.2-14-.5-1.4-1.6-4.5-2.5-7-.8-2.5-1.7-5.2-2-6-.3-.8-.7-2-.9-2.5-.1-.6-2.5-7.5-5.2-15.5-4.7-13.8-9.6-28.9-9.7-30-.1-.3-1.3-4.6-2.9-9.5-1.5-5-3.7-12.2-4.8-16-1.1-3.9-2.5-8.6-3.1-10.5-.6-1.9-1.2-4-1.3-4.6-.1-.7-1.4-5.4-2.9-10.5-1.5-5.2-2.9-10.2-3.1-11.2-.2-.9-.6-2.5-.8-3.5-.4-1.5-7.9-31.1-9.3-36.7-.2-1.1-1.1-4.9-1.9-8.5-.8-3.6-1.6-7.4-1.9-8.5-.3-1.1-.7-3-1-4.3-.3-1.2-.7-3.2-1-4.5-.3-1.2-.7-3.3-1-4.7-.3-1.4-.7-3.4-.9-4.5-2-9.2-4.5-21.2-5.1-24.5-.5-2.7-1.2-6-2-10-.2-1.4-.7-3.9-1-5.5-.3-1.7-.7-4-.9-5.1-.2-1.2-.7-3.7-1-5.5-.3-1.9-.8-4.5-1.1-5.9-.2-1.3-.7-4-1-6-.3-2-.7-4.7-1-6-.3-1.3-.7-4-1-6-.3-2-.7-4.5-.9-5.5-.2-1.1-.7-4-1-6.5-.3-2.5-.8-5.4-1-6.5-.2-1.1-.7-4.5-1.1-7.5-.4-3-.9-6.4-1.1-7.5-.3-1.1-.7-3.8-.9-5.9-.4-3.8-1.2-9.4-2-14.6-.2-1.4-.7-5.2-1-8.5-.3-3.3-.8-7.1-1-8.5-.4-2.5-1.1-8.1-2.1-18-.3-3-.7-6.6-.9-8-.2-1.4-.7-5.9-1.1-10-.3-4.1-.8-8.9-1-10.5-.1-1.7-.5-6.4-.9-10.5-.3-4.1-.8-9.5-1-12-.2-2.5-.7-8.8-1.1-14-.3-5.2-.8-11.3-.9-13.5-.3-3.7-1.5-25.2-2.1-37.5-2.5-53.8-2.1-132.7 1.1-187.5 1-16.5 1.1-18.8 2-31.5.4-5.8.9-12.1 1-14 .1-1.9.5-6.7.9-10.5.4-3.9.9-9.4 1.2-12.2.3-2.9.7-7.2.9-9.5 1.1-10.1 1.6-14.6 2-18.8.3-2.5.8-6.5 1-9 .2-2.5.7-6.8 1.1-9.5.4-2.8.8-6.1.9-7.5.1-1.4.5-4.3.9-6.5s.9-6 1.2-8.5c.3-2.5.7-5.6.9-7 .2-1.4.6-4.3.9-6.5.4-2.2.8-5.6 1.1-7.5.3-2 .7-4.7 1-6 .3-1.3.7-4 1-6 .3-2 .7-4.7 1-6 .3-1.3.7-4 1-6 .3-2 .8-4.7 1-6 .3-1.4.8-4.3 1.1-6.5.3-2.2.7-4.7.8-5.5.2-.8.6-2.9.9-4.5.4-1.7.9-4.4 1.2-6 .3-1.7.7-3.9.9-5 .5-2.7 3.7-19.4 4.2-22.5.3-1.4.7-3.3 1-4.2.3-1 .8-3 1-4.5.5-2.5 1.8-8.4 3-13.6.9-3.8 1.4-6.3 1.9-9 .9-4.7 11.2-45.9 13.5-54.1.7-2.1 1.4-4.8 1.6-6 .3-1.1.6-2.6.8-3.1.1-.6.8-3 1.5-5.5.6-2.5 1.6-5.6 2-7 .5-1.4 1.7-5.2 2.6-8.5.9-3.3 2.3-7.7 3.1-9.8.8-2 1.3-3.8 1.2-4 0-.1.7-2.9 1.7-6.2 1-3.3 2-6.5 2.1-7 2.1-8 20.8-61.5 24.8-71 .9-2.2 1.7-4 1.6-4-.1 0 .3-1.1.8-2.5 7.9-20.2 11.3-28.7 19-46.5 10.2-23.7 15-34.4 19.2-42.8 1.7-3.1 3-5.9 3-6.2 0-.6 16.7-34.1 22.2-44.4 4.5-8.5 9.1-16.9 13.8-25.1 1.7-3 3.8-7.1 4.8-9 .9-1.9 2-4 2.4-4.5.5-.6 6.7-10.9 14-23 40.9-68.5 84.4-126.1 134.8-178.8 10.3-10.8 31.3-31.4 39.5-38.8 3.3-3 6.2-5.6 6.5-5.9.3-.3 5.5-4.9 11.5-10.1 67-58 139-102.6 220-136.4 1.7-.7 5.3-2.2 8.2-3.4 2.8-1.1 6.4-2.6 8-3.3 1.5-.6 3-1.2 3.3-1.3 2.1-.5 6-1.9 8.5-3 6.1-2.8 51.6-18.1 56-18.9.6-.1 1.6-.5 2.3-.9.6-.5 1.2-.6 1.2-.3s1.2.1 2.8-.5c1.5-.6 3.4-1.2 4.2-1.4.8-.2 3.5-.9 6-1.6 2.5-.7 5-1.3 5.5-1.5.6-.1 8.4-2.1 17.5-4.4 9.1-2.3 17.4-4.4 18.5-4.6 1.1-.2 3.1-.6 4.5-.9 1.4-.4 3.4-.8 4.5-1 1.1-.3 3.1-.7 4.5-1 1.4-.4 3.6-.8 5-1.1 1.4-.2 3.6-.7 5-.9 1.4-.3 3.6-.8 5-1 1.4-.3 3.6-.7 5-1 1.4-.3 3.9-.8 5.5-1 1.7-.3 4.1-.7 5.5-1 4.3-.9 13.3-2.4 17.5-3 2.3-.3 5.2-.8 6.5-1 1.4-.3 4.1-.8 6-1 7.1-.9 12.6-1.6 15.1-2 4-.7 9.9-1.5 15.9-2.1 3-.2 6.9-.6 8.5-.8 1.7-.2 6.4-.7 10.5-1.1 4.1-.4 8.9-.9 10.5-1.1 2.7-.2 11.4-.9 25.5-1.9 20.7-1.5 40.7-2 78.5-2 47.7 0 69 .9 103 4 19.6 1.9 46.4 5.2 60.5 7.5 3 .5 7.5 1.2 10 1.5 2.4.4 4.7.8 5 1 .3.1 2.5.6 5 .9 2.5.3 5.6.8 7 1.1 1.4.3 3.6.7 5 1 3.6.7 12.1 2.3 15 3 1.4.3 3.6.7 5 1 5.3 1 7.2 1.4 8.8 1.9.9.3 2.8.7 4.2 1 1.4.2 4.5.9 7 1.6 2.5.7 5.4 1.4 6.5 1.6 3.5.7 5.9 1.2 12 2.9 3.3.9 6.7 1.8 7.5 2 .8.2 5.6 1.5 10.5 3 5 1.4 9.7 2.8 10.5 3 7.5 1.7 60.1 19.9 64.7 22.3 1 .6 2.3 1.1 2.8 1.2 7.9 1.7 68.1 29.7 87.5 40.7 1.9 1.1 6.1 3.4 9.3 5.2 16.2 9 50.8 30.7 51.5 32.3.2.5.8.8 1.4.8 1 0 25.7 17.5 35.8 25.3 59.9 46.7 105 91.7 147.1 146.7 10.9 14.3 29 39.5 30.9 43.1.7 1.3 1.6 2.6 1.9 2.9.4.3 2 2.6 3.6 5.2 1.7 2.7 3.3 4.8 3.8 4.8.4 0 .7.4.7.9 0 .6 2.7 5.2 5.9 10.3 10.6 16.5 25.2 41.3 35.6 60.3 7.7 14.1 11.9 22 22 42.3 11.5 23.1 18 36.8 25.3 53.2 1 2.5 3.5 8.1 5.5 12.5 5.2 11.7 7 15.9 7.3 17 .2.8 14 34.6 17.9 44 .4 1.1.9 2.4 1.1 3 .1.5 2.2 6.2 4.7 12.5 2.4 6.3 7.4 20 11.1 30.5 3.7 10.4 8 22.6 9.6 27 1.6 4.4 3.4 9.9 4.1 12.2l1.2 4.3h34.9c19.2 0 34.7-.3 34.5-.8-.3-.4-.8-4.8-1.2-9.7-.3-5-.8-11-1-13.5-.2-2.5-.7-7.9-1-12-.3-4.1-.8-9.5-1-12-.5-5.4-1.5-17.8-2-24-.8-10.1-1.6-19.8-2-25-.7-8.3-1.6-19-2-24-.2-2.5-.6-8.1-1-12.5-1.7-20.8-2.9-34.7-3.9-48.5-.4-4.1-.9-10-1.1-13-.7-7.2-1.4-15.8-2-24.5-.3-3.9-.7-9.5-1-12.5-.3-3-.7-8.4-1-12-.3-3.6-.7-8.5-1-11-.2-2.5-.7-7.9-1-12-.3-4.1-.7-10-1-13-.3-3-.7-8.7-1-12.5-.3-3.9-.7-9-1-11.5-.2-2.5-.7-8.3-1-13-.7-9.7-1.1-14.5-2.1-25-.3-4.1-.7-9.1-.9-11-1.3-16.8-1.6-21.6-2-25.3-.3-2.3-.7-7.4-1-11.3-.3-4-.7-9.6-1-12.5-.5-5.4-1-11.5-2-24.4-.3-3.9-.7-9.7-1-13-.3-3.3-.7-8.9-1-12.5-.5-6.9-1.2-14.2-2-23.8-.3-3.2-.7-8.5-1-11.8-.2-3.2-.7-8.8-1-12.4-.3-3.6-.8-9-1-12-.6-7.4-1.4-17-2.1-25.5-.3-3.9-.7-9-.9-11.5-.4-5.2-1.4-18.5-2-25-.6-6.6-1.6-18.8-2-24-.4-4.7-1.2-14.8-1.9-23.5-.8-9.5-1.8-21-2.2-26.5-.3-5.4-.8-11.6-2-24.8-1.1-13.1-2.6-30.7-2.9-35.2-.1-1.9-.6-7.3-1-12s-.9-10.1-1-12c-.1-1.9-.6-7.3-1-12s-.9-10.5-1-13c-.1-2.5-.5-7.7-.9-11.5-.3-3.9-.9-9.9-1.1-13.5-.3-3.6-.8-9-1-12.1-.3-3.1-.7-8.3-1-11.5-.2-3.2-.8-9.3-1.1-13.4-.4-4.1-.8-9.1-.9-11-.2-1.9-.3-4.1-.4-4.8-.1-.9-8.1-1.2-36.6-1.2H6215l-.1 3.7c-.1 4.2-.3 6.2-1.3 17.8-1.1 11.9-2.1 20.5-3.1 27.5-.2 1.4-.7 4.5-1 7-.9 6.8-1.4 9.4-3.1 17.3-1.5 6.9-1.8 8.3-2.9 12.7-.3 1.1-.7 2.9-.9 4-.3 1.1-.7 2.4-1 2.8-.3.5-.7 1.9-1 3.3-1.5 8.5-10.3 27.2-16.7 36-6.2 8.5-18.9 20.4-26.2 24.8-12.7 7.5-23.5 10.5-37.7 10.5-7.2-.1-14.6-.7-20-1.9-1.4-.3-4.2-.7-6.4-1-2.1-.3-4.1-.7-4.5-1-.4-.2-1.8-.6-3.2-.9-1.3-.2-5.3-1.2-8.9-2.1-3.6-.8-7.2-1.7-8-1.9-.8-.2-4.2-1.2-7.5-2.2-3.3-1-6.4-1.9-7-2-2.2-.4-30.9-9.9-45.5-15.1-8.5-3-15.9-5.6-16.5-5.7-.5-.2-1.7-.6-2.5-.9-2.9-1.2-15.5-5.9-16.5-6.1-1.2-.4-4.3-1.5-7-2.6-2.4-1-11.8-4.4-12.5-4.6-.3 0-1.4-.4-2.5-.8-12.5-4.8-31.4-11.6-33.5-12.1-.8-.2-3.3-1.1-5.5-1.9-8-3-27-9.7-28.6-10.1-.8-.2-3.2-1-5.2-1.9-2-.8-3.7-1.2-3.7-.9 0 .3-.6.1-1.2-.4-1.6-1.2-67.4-23.1-91.3-30.3-11.6-3.5-37-11.1-38.5-11.5-.8-.3-8-2.3-16-4.5-12.9-3.7-34.9-9.6-39-10.5-.8-.2-6.4-1.6-12.5-3-6-1.5-12-2.9-13.2-3-1.1-.2-3-.6-4.1-.9-2-.7-3.6-1-9.2-2.1-5.2-1-7.2-1.4-8.8-1.9-.9-.3-3.3-.7-5.2-1-1.9-.3-4.6-.8-6-1.1-1.4-.3-4.1-.8-6-1.1-1.9-.3-4.2-.7-5-.9-.8-.2-3.1-.7-5-1-1.9-.3-4.8-.8-6.5-1.1-1.6-.3-4.3-.7-6-1-1.6-.2-3.9-.5-5-.8-1.1-.2-4.5-.7-7.5-1.1-3-.4-6.4-.9-7.5-1.1-1.1-.2-4-.7-6.5-1-2.5-.2-5.6-.6-7-.9-1.4-.2-5-.6-8-1-3-.3-6.6-.8-8-1-1.4-.2-5.4-.7-9-1.1-3.6-.3-7.8-.8-9.5-.9-1.6-.2-6.1-.7-10-1-3.8-.4-8.6-.8-10.5-1-4.8-.5-20.6-1.7-25.5-2-2.2-.2-9.4-.6-16-1s-14.9-.9-18.5-1.2c-7.8-.5-135.6-1.4-136.1-.9zM3.9 2034c-.1.3-.2 16.6-.3 36.2l-.1 35.8 52 .1c63.5.1 77.5.5 94 2.3 12.6 1.5 24.9 3.2 29.5 4.2 1.4.2 3.6.7 5 .9 4.5.7 8.5 1.6 10.2 2.1.9.3 2.5.6 3.5.8 9.9 2 31 8.8 45.1 14.6 36.5 14.9 72.6 41.7 92.4 68.4 8.7 11.7 19.7 35.4 24.4 52.6 2.6 9.7 6.5 25 6.9 27 .3 1.4.7 3.6 1 5 .3 1.4.7 3.6 1 5 .3 1.4.7 3.6 1 5 .3 1.4.8 4.3 1 6.5.3 2.2.8 4.7 1 5.5.3.8.7 3.1.9 5 .3 1.9.7 5.2 1 7.2 2.2 14.9 3 21.1 4.1 31.8 2.3 24.1 2.9 31.9 4 51.5.4 6.6.9 14.5 1.1 17.5 1.5 26 1.8 182.8 1.8 939 0 760.9-.3 912.5-1.8 941-1.2 21.5-2.1 36.4-3.1 48-1.2 14.3-1.4 16.7-3 31-.5 4.6-1.7 13.3-2.1 15.3-.2 1.1-.6 4.1-.9 6.6-.3 2.5-.7 5.5-.9 6.6-.2 1.1-.7 4-1.1 6.5-.4 2.5-.9 5.4-1.1 6.5-.2 1.1-.6 3.1-.9 4.5-.7 3.5-1.2 6.1-1.9 9-.3 1.4-.8 3.6-1 5-1.7 8.7-8.2 30.1-12.1 39.5-5.6 13.7-14 27-26.2 41.7-11.6 13.9-27.6 29.3-37.3 35.8-1.9 1.3-3.9 2.8-4.5 3.5-3.1 3.5-40.1 24.1-45 25.1-.5.1-4.4 1.6-8.5 3.3-6.6 2.6-10.4 4.1-12 4.6-.3.1-2.5.7-5 1.5-2.5.7-4.9 1.5-5.5 1.6-.5.2-6.5 1.7-13.3 3.4-12 2.9-16.1 3.8-21.2 4.5-1.4.2-4.1.7-6 1-1.9.4-4.6.8-6 1-1.4.2-5 .6-8 1-18.8 2.4-32.8 2.8-92.5 2.9l-60 .1v72.5h1135v-36c0-19.8-.2-36.1-.5-36.1-.3-.1-28.6-.3-63-.4-58.3-.3-71.1-.6-82.9-1.9-2.5-.3-7.1-.8-10.1-1.2-8.4-.9-12.3-1.5-19.7-2.8-1.8-.3-4.8-.8-6.5-1.2-14.6-2.4-42.7-10.9-58.3-17.5-35.7-15.2-69.2-40.1-89.7-67-5.3-6.9-13.3-21.3-16.9-30.4-6.9-17.2-13.7-40.1-16.3-55-.3-1.7-.8-4.1-1.1-5.5-2.3-11.5-3-15.4-3.9-21.9-.3-2.3-.8-5.5-1-7-.6-3.3-1.4-9.4-2.1-15.1-.3-2.5-.8-6.1-1-8-1-7.7-2-18-3-31-.3-4.1-.8-9.5-1-12-.4-4.5-1.4-21.7-2-34-1.5-30.7-1.9-117.1-1.9-459.5l-.1-394 2.5.2c64.2 4.4 138.1 4.7 248.5.9 11-.4 21.2-.9 22.7-1.2 2.4-.4 3.4.6 10.5 10.3 4.3 6 8.1 11.2 8.6 11.8.4.5 4.7 6.4 9.4 13s9 12.1 9.5 12.3c.4.2.8.8.8 1.3s3.7 5.9 8.3 12.1c4.6 6.2 13 17.8 18.7 25.8 5.7 8 10.8 14.9 11.2 15.5.5.5 4.2 5.7 8.3 11.5 4.1 5.8 8.5 11.8 9.8 13.4 1.2 1.6 2.4 3.4 2.6 4 .2.6 1.2 1.8 2.1 2.6.9.8 1.9 2 2.1 2.6.2.6 1.4 2.4 2.6 4 2.6 3.3 38.4 52.8 47 64.9 3.1 4.4 6.1 8.4 6.5 9 .8 1 7.4 10 28.1 38.8 5.1 7.1 10.9 15 13 17.7 2 2.6 3.7 5.2 3.7 5.8 0 .6.3 1.2.8 1.4.7.3 6.1 7.6 24.7 33.3 6 8.2 15.4 21.3 21 29 23.8 32.9 48.6 67 69.5 96 12.4 17 22.8 31.4 23.2 32 .5.5 3.4 4.6 6.5 9 3.2 4.4 6.1 8.4 6.5 9 5.5 7.1 20.8 28.8 20.8 29.5 0 .4.3 1 .8 1.2.4.1 3.2 3.7 6.2 7.8s6 8.1 6.7 8.8c.7.7 1.3 1.7 1.3 2.2 0 .5.6 1.5 1.3 2.2.8.7 4.6 5.8 8.5 11.3 3.9 5.5 11.4 15.8 16.6 23 5.3 7.1 15.7 21.5 23.2 32 58.5 80.9 63.6 87.9 64.6 88.3.4.2.8.8.8 1.3 0 .6 1.5 3 3.2 5.4 1.8 2.3 4.2 5.6 5.3 7.1 1.1 1.5 3.8 5.3 6.1 8.3 2.2 3.1 19.5 27 38.4 53.1 45.9 63.6 44.4 61.4 45 62 .3.3 2 2.7 3.9 5.5 1.9 2.7 5.8 8.1 8.6 12 2.8 3.8 13 17.8 22.5 31s19.8 27.4 22.9 31.6c5.5 7.5 7.4 10.1 25.1 34.9 5 6.9 9.3 13 9.7 13.5.5.6 2.1 2.8 3.8 5 1.6 2.2 3.3 4.4 3.7 5 .5.5 4 5.5 7.9 11 4 5.5 8.8 12.2 10.9 15 2 2.7 12.6 17.4 23.5 32.5 21.7 30.2 26.5 36.7 30.7 42.2 1.5 2 2.8 4.1 2.8 4.5 0 .5.9 1.5 2 2.3 1.1.8 2 1.8 2 2.3 0 .7 3.8 6.6 5 7.7.3.3 6.6 8.8 14 19 7.3 10.2 15 20.7 17 23.5 8.7 11.9 36.5 50.3 53.4 73.9 6 8.3 11.3 15.2 11.7 15.4.5.2.9.8.9 1.3s3 5 6.7 9.9l6.8 9h707v-36c0-31.2-.2-36.1-1.5-36.5-.8-.2-4-.7-7-1-3-.3-7.1-.8-9.1-1-2-.3-5.4-.7-7.5-1-2.1-.2-5.2-.6-6.9-.9-3.4-.5-9-1.3-15-2.1-2.2-.3-5.1-.7-6.5-1-1.4-.3-4.5-.8-7-1.1-2.5-.3-5.4-.8-6.5-1-1-.2-3.7-.6-6-.9-2.2-.3-4.7-.8-5.5-1-.8-.2-3-.7-4.7-1-1.8-.3-4.8-.7-6.5-1-1.8-.3-4-.8-4.8-1-.8-.2-2.8-.7-4.5-1-1.6-.2-4.1-.7-5.5-1-1.4-.3-3.7-.7-5.2-1-1.5-.2-3.5-.6-4.5-.9-1-.3-3.4-.8-5.3-1.1-1.9-.3-4.3-.8-5.2-1.1-1.6-.5-2.9-.8-8-1.9-1.3-.3-5.2-1.2-8.7-2.1-3.6-.9-7.3-1.8-8.3-2-3-.7-4.7-1.1-19.8-5.3-16.6-4.5-23.5-6.6-40.5-12.3-6.6-2.2-12.4-4.1-13-4.2-1.9-.4-29.6-11.1-35.2-13.7-2.4-1-4.5-1.9-4.8-1.9-2.7 0-46.2-21.3-62.8-30.7-7-4-13-7.3-13.3-7.3-.2 0-1-.4-1.7-1-.7-.5-8.8-6-18.2-12.2l-18-12c-.5-.5-2.6-2.2-4.5-3.8-1.9-1.6-3.8-3-4.2-3-.4 0-1.3-.6-2-1.3-.7-.6-4.7-3.9-8.8-7.2-8.9-7.1-8.9-7.1-25.5-21.5-16.8-14.6-24.5-21.9-50-47.6-17.2-17.3-37.4-38.8-47.8-50.8-1-1.2-2.8-3.2-4-4.6-28.3-32.4-51.9-61-75.2-91-7.5-9.6-14.3-18.3-15.1-19.3-.7-.9-6.9-9-13.6-18-6.7-8.9-12.6-16.7-13.1-17.2-.8-1.1-25.2-34.6-27.7-38.2-3.3-4.8-29.4-40.8-30.2-41.7-.5-.6-7.3-10.1-15.2-21.1-7.8-11-21.4-29.9-30.1-42-8.7-12.1-18.1-25.1-20.8-28.9-2.7-3.8-5.3-7.4-5.8-8-.5-.6-4.1-5.6-8.1-11.1-16.7-23.4-50.3-70.1-51-71-.5-.6-6.8-9.3-14-19.5-7.3-10.2-13.8-19.1-14.5-19.8-.7-.7-1.3-1.7-1.3-2.2 0-.5-.6-1.5-1.3-2.2-.8-.7-9.9-13.2-20.3-27.8-29.7-41.5-32.7-45.5-33.6-45.8-.4-.2-.8-.8-.8-1.3 0-.6-1.3-2.7-2.9-4.7-1.5-2-13.2-18.1-25.8-35.7-12.6-17.6-27.2-37.9-32.3-45-5.1-7.2-9.7-13.2-10.2-13.3-.4-.2-.8-.8-.8-1.2 0-.5-3.5-5.8-7.8-11.7-6.6-9.1-32-44.3-49.2-68.3-2.6-3.6-10.7-14.8-18-25-7.3-10.2-18.5-25.7-24.8-34.5-6.3-8.8-11.8-16.2-12.1-16.5-.3-.3-1-1.3-1.6-2.2-.9-1.6-21-29.6-49-68.3-6-8.3-15.2-21.1-20.5-28.5-5.3-7.4-14.7-20.5-20.9-29-6.1-8.5-11.8-16.4-12.5-17.5-.8-1.1-4.6-6.4-8.5-11.7-3.9-5.3-6.7-9.9-6.3-10.2.5-.3 1.9-.7 3.3-1 3.4-.6 11-2.4 20.9-4.7 4.7-1.2 9.3-2.3 10.3-2.5 3.2-.8 5.2-1.3 18.7-4.8 7.4-1.9 16.9-4.5 21-5.6 4.1-1.1 8.4-2.3 9.5-2.5 1.1-.3 10.1-3 20-6 9.9-3.1 18.5-5.7 19-5.9.6-.1 2.4-.6 4-1.1 1.7-.4 3.6-1.2 4.2-1.8.7-.5 1.3-.7 1.3-.4 0 .3 3-.5 6.8-1.9 3.7-1.4 7.4-2.7 8.3-2.9 2.5-.5 24.3-8.3 32.4-11.5 1.7-.6 3.7-1.3 4.5-1.5 1.9-.5 32-12.5 38.2-15.4 2.6-1.1 4.9-2.1 5.2-2.1.2 0 3.3-1.3 6.8-2.9 3.5-1.5 9.2-4.1 12.8-5.7 8.4-3.7 55.2-27.1 65-32.5 14.1-7.8 42.5-25.2 58-35.7 13.3-8.9 40.3-28.6 45-32.8.8-.7 6.5-5.5 12.5-10.6 49.8-41.7 92.6-90.9 128.6-147.8 7.8-12.2 10.7-17.2 17.6-29.5 6.2-11 20.7-40.5 25.8-52.5 3.1-7.4 6.1-14.4 6.6-15.5 1.7-3.9 10.6-28 11.4-31 1-3.5.9-3.4 1.9-6 2-5.1 2.7-7.1 3.1-9 .3-1.1 1.2-4.5 2.1-7.5 2.7-9.3 9.5-35.4 9.9-38 .2-1.4.7-3.5 1-4.8.8-3.5 1.5-6.5 2-9.2.3-1.4.7-3.5.9-4.6.2-1.2.7-3.7 1-5.5.5-3.2.8-4.7 2.1-10.9.3-1.4.8-4.5 1.1-7 .3-2.5.7-5.4.9-6.5.1-1.1.5-4.1.9-6.5.5-4.2.9-7 2-16.5 4.3-35.6 5.2-94 2.1-132-1.3-16.7-1.6-20.3-2-22.6-.3-1.4-.7-5.1-1-8.1-.3-3-.7-6.4-.9-7.5-.3-1.1-.7-4.4-1.1-7.3-.4-2.9-.9-6.2-1.1-7.4-.2-1.2-.6-3.5-.9-5.1-.3-1.7-.7-4.1-1-5.5-.3-1.4-.7-3.9-1-5.5-.3-1.7-.7-4.1-1-5.5-.3-1.4-.7-3.6-1-5-.3-1.4-.7-3.6-1-5-.3-1.4-.8-3.6-1.1-4.9-.3-1.3-1.2-5.1-2-8.5-.8-3.4-1.7-6.9-1.9-7.9-.2-1-.7-2.7-1-3.7-.3-1-.8-2.9-1-4.1-1.5-7.7-14-46.3-18.8-57.9-.6-1.4-1.1-2.8-1.1-3.2-.1-.3-.4-1-.8-1.4-.5-.4-.8-1.3-.8-2 0-1.2-2.5-7.1-6.8-16.4-.9-1.9-1.7-3.7-1.7-4-.9-3.5-12.8-27.6-21.9-44-20.7-37.8-44.6-71.5-77.2-108.7-13.4-15.4-50.7-53.2-62.9-63.9-3.9-3.4-8.8-7.7-11-9.6-3.2-2.8-22.5-18.6-29.5-24.2-5.2-4.1-25.6-19-31-22.7-3.6-2.4-6.6-4.7-6.8-5.1-.2-.5-.8-.8-1.3-.8s-4.1-2.2-8.1-4.9c-9.5-6.3-20.8-13.1-21.8-13.1-.5 0-1-.4-1.2-.8-.3-.7-7.3-4.9-21.3-12.7-5.8-3.2-34.7-18.1-35.7-18.4-.4-.1-4.7-2-9.5-4.2-12.5-5.8-13.3-6.1-28.3-12.2-17.1-7-48.6-18.4-52.5-19.1-.5-.1-1.6-.5-2.2-.9-.7-.5-1.3-.6-1.3-.3s-2.2-.3-5-1.4c-2.7-1.1-5-1.7-5-1.5 0 .3-.8.1-1.8-.4s-5.4-1.9-9.8-3.1c-4.3-1.2-8.6-2.3-9.4-2.5-9.2-2.7-37-9.3-46-11.1-1.4-.3-4.5-1-7-1.5-2.5-.6-5.5-1.3-6.7-1.5-1.3-.2-3.3-.6-4.5-.9-1.3-.2-3.6-.7-5.3-1-1.6-.3-5-1-7.5-1.5s-6-1.2-7.7-1.5c-7.8-1.2-9.9-1.6-12.3-2-4.9-1-7.5-1.5-11-2-2-.3-4.7-.8-6-1-1.4-.3-4.1-.7-6-1-4.4-.5-10.7-1.5-14-2.1-1.4-.2-4.5-.7-7-1-2.5-.3-5.8-.7-7.5-1-1.6-.3-4.6-.7-6.5-.9-1.9-.2-4.8-.6-6.5-.9-1.6-.2-5.5-.8-8.5-1.1-3-.3-6.6-.8-8-1-3-.4-10.8-1.4-17-2-2.5-.3-6.5-.7-9-1-4.8-.5-9.8-1.1-19.2-2-3.2-.3-7.7-.8-10-1-2.4-.3-7.2-.7-10.8-1-3.6-.4-8.5-.8-11-1.1-7.8-.7-20.6-1.8-36.5-2.9-3.8-.3-9.9-.7-13.5-1-11.3-.8-32.7-2.2-48-3-31.8-1.6-38.8-1.9-66.5-3-21.9-.8-40-1.3-73-2.1-32.3-.8-1067.4-1.2-1067.6-.4zM1105 2183.4c14.5.9 31 2.2 39 3.1 1.4.2 5.2.6 8.5.9 6.8.8 12.2 1.5 15 2 1.1.2 4.5.7 7.5 1.1 3 .4 6.2.9 7.1 1 .9.2 3.4.6 5.5.9 2.2.4 4.6.8 5.4 1.1.8.2 3.1.6 5 .9 1.9.3 4.6.8 6 1.1 1.4.3 3.7.7 5.2 1 1.6.3 5.8 1.2 9.5 2.1 3.8.9 7.6 1.7 8.6 2 1 .2 2.7.6 3.7.9 1 .3 2.7.8 3.7 1 1 .2 3.6.9 5.8 1.5 2.2.6 4.9 1.3 5.9 1.5 1.1.2 4 1.1 6.6 2 2.6.9 5.5 1.7 6.6 1.9 3 .7 23.7 7.5 25.9 8.7 1.2.6 2.7 1.1 3.5 1.3 1.5.3 3.9 1.1 7.5 2.6 1.9.8 5.5 2.1 6.5 2.5.3.1 2.5 1.1 5 2.2s5.5 2.3 6.7 2.7c1.2.4 5.3 2.2 9.2 4.1 4 1.9 7.8 3.5 8.5 3.5.8 0 1.6.3 1.8.7.2.5 6.6 3.9 14.3 7.8 7.7 3.8 19.6 10.4 26.5 14.6 6.9 4.1 13.6 8.2 14.9 9 1.4.8 3.4 2.2 4.5 3.1 1.1 1 2.5 1.8 3.2 1.8.7 0 1.4.3 1.6.8.2.4 4.1 3.4 8.8 6.7 43 29.9 87.7 74 120 118.5 3 4.1 5.7 7.7 6 8 .3.3 1.1 1.7 1.9 3.2.8 1.5 2.2 3.7 3.3 4.7 1 1.1 1.8 2.3 1.8 2.6 0 .3 1.7 3.2 3.8 6.3 16.5 24.5 36.8 65.2 48.2 96.7 1.2 3.3 2.6 6.9 3 8 3.3 7.7 16.6 53.6 17.4 60 .2 1.1.6 2.9.9 4 .6 1.9 1.1 4.3 2.3 10.5.2 1.4.7 3.6 1 5 .3 1.4.8 3.6 1 5 .2 1.4.5 3.4.7 4.5.3 1.1.8 4 1.2 6.5.4 2.5.9 5.2 1 6.1.2.9.6 4 1 6.9.4 2.9.8 6.1 1 7 .5 2.6 1.7 12.1 2 15.5.1 1.6.6 6.4 1 10.5 3.5 34.2 4 96.1 1 123.5-.1 1.6-.6 5.9-.9 9.5-.3 3.6-.9 8.3-1.1 10.5-.3 2.2-.8 5.8-1 8-.3 2.2-.7 5.1-1 6.5-.3 1.4-.7 4.1-.9 6-.7 5.2-1.4 9-4.7 25-1.7 8-3.2 15.6-3.5 17-2.3 11.8-16.5 57-22.1 70-.8 1.9-1.9 4.4-2.3 5.5-7.5 18.1-17.3 38.2-26.7 54.9-4 7.1-7.3 13.2-7.3 13.6 0 .5-.4 1-.8 1.2-.4.1-2.6 3.2-4.7 6.8-4 6.6-13.7 21-19.7 29-1.8 2.5-3.6 4.9-4 5.5-36.2 50-95.1 104.5-151.3 140-11 7-34.2 20.5-35.2 20.5-.3 0-1.7.9-3.1 1.9-1.5 1-3 1.9-3.4 2-.4.1-7.9 3.7-16.6 7.9-8.7 4.3-17.6 8.6-19.8 9.4-2.1.9-6.5 2.8-9.6 4.2-3.1 1.4-5.9 2.6-6.2 2.6-.4 0-2.5.9-4.9 2-2.3 1-10.5 4.2-18.2 7-7.7 2.8-14.9 5.5-16 6-1.1.5-6.5 2.3-12 4.1-5.5 1.7-12.5 4-15.5 4.9-7.6 2.5-21.9 6.6-29.5 8.6-19.2 4.9-29.4 7.5-31 7.9-1.1.2-3.1.6-4.5 1-1.4.3-3.4.7-4.5.9-1.1.3-5.3 1.2-9.2 2-4 .9-8.5 1.8-10 2.1-1.6.3-3.9.7-5.3 1-1.4.3-3.8.8-5.4 1-1.5.2-3.5.6-4.5.9-.9.3-3.4.8-5.6 1.1-2.3.3-5.2.8-6.5 1-1.4.3-4.1.8-6 1.1-1.9.3-6 .9-9 1.4-3 .5-6.9 1.2-8.6 1.5-1.7.2-4.8.7-6.9 1-5.2.6-10.2 1.3-15.5 2.1-5.1.7-7.2 1-15 1.8-3 .4-7.4.8-9.7 1.1-2.3.3-6.8.8-10 1.1-3.2.3-7.4.7-9.3.9-3.2.4-12 1.2-23 2-2.5.2-9 .6-14.5 1-5.5.3-12.2.8-15 1-18.1 1.3-46.7 1.9-83.5 1.9-40.9 0-112.4-1.2-114.5-1.8-1-.4-1.5-1098.9-.5-1100 .3-.2 2.8-.8 5.5-1.1 2.8-.4 5.3-.9 5.6-1.1.4-.2 2.4-.6 4.4-1 2.1-.3 4.7-.8 5.9-1 1.1-.2 3.6-.7 5.5-1 1.8-.3 4.3-.8 5.5-1 1.1-.2 4.6-.8 7.6-1.4 3-.6 6.6-1.2 8-1.5 1.4-.3 4.1-.7 6-1 1.9-.3 4.6-.7 6-1 1.4-.3 4.1-.8 6-1.1 1.9-.3 4.4-.7 5.5-.9 1.1-.2 3.8-.6 6-.9 2.2-.3 5.1-.8 6.5-1.1 1.4-.3 4.1-.7 6-1 1.9-.3 4.6-.7 6-1 1.4-.3 4.5-.8 7-1.1 2.5-.2 5.2-.7 6.1-1 .9-.2 3.6-.7 6-.9 3.9-.4 9.5-1.2 14-2 .9-.2 4-.6 6.9-1 2.9-.4 6.1-.8 7-1 1.7-.3 10.1-1.5 15-2 1.4-.2 4.5-.6 7-.9 7.8-1 15.5-1.8 28-3.2 3-.3 6.9-.8 8.5-1 1.7-.1 6.4-.6 10.5-.9 4.1-.3 8.6-.8 10-1 2.2-.4 9.2-.9 25.5-2 2.2-.1 11-.6 19.5-1s15.6-.8 15.7-.9c.5-.5 53.9.2 64.3.8z"/><path d="M1331.9 2269.3c-.3.7-.6 926.7-.3 926.7.5 0 19.6-11.1 22.4-13l2.5-1.8.4-419.3c.1-230.7.4-419.5.5-419.6.1-.2 1.5 3.6 3.1 8.5 1.5 4.8 4.1 12.5 5.7 17.2 1.6 4.7 3.1 9.2 3.3 10 .2.8 1 3.5 1.8 6s3 9.2 4.8 15c1.7 5.8 3.4 10.9 3.8 11.5.3.5.6 1.4.7 2 .2 1.1 5.8 18.7 10.9 34 1.8 5.5 4.7 14.5 6.4 20 1.8 5.5 3.4 10.7 3.7 11.5.3.8.5 1.5.4 1.5-.1 0 .9 3.1 2.3 7 1.3 3.8 3.4 10.1 4.6 14 3.1 9.6 3.2 10 3.1 10-.1 0 1 3.1 2.3 7 3.1 8.7 9.1 27.9 8.9 28.3-.2.1.5 1.6 1.3 3.2s1.5 3.2 1.5 3.5c.1.6.2.9 2.9 9.5 1.2 3.6 2.3 7.2 2.5 8 .2.8 2.1 6.4 4.1 12.5 2 6 3.8 11.7 4 12.5.2.8 2.4 7.6 4.8 15 7.6 23 16.1 49.5 16.3 50.5.1.5 2.5 8 5.4 16.5 2.8 8.5 5.3 16.2 5.5 17 .2.8 2.5 7.8 5 15.5 2.6 7.7 4.9 15.1 5.1 16.4.3 1.3 1.2 4 2 6 .9 2 1.7 4.3 1.9 5.2.3 1.5 6.6 21.1 13 40.4 1.8 5.5 5.8 18.1 8.9 28 3.2 9.9 6.2 19.3 6.9 21 .6 1.6 1.2 3.4 1.3 4 .1.5 1.9 5.9 3.9 12 2 6 3.8 11.7 4 12.5.2.8 2.6 8.4 5.4 16.8 2.8 8.4 5.1 15.7 5.1 16.2s.5 2.1 1.2 3.7c.6 1.5 1.2 3.1 1.3 3.5.2.5.3.9.5 1 .1.2.3 1 .5 1.8s2.3 7.6 4.7 15c2.5 7.4 6.7 20.4 9.3 28.7 2.7 8.4 5.2 15.3 5.5 15.3.8 0 10.4-23.2 10.1-24.5-.1-.3.6-2 1.5-3.7 2.6-5 3.2-8.1 2.2-10.8-.5-1.4-1.1-3.2-1.3-4.1-.2-.9-1.9-6.3-3.8-12-3.8-11.3-19.6-60.5-22.9-70.9-1.1-3.6-2.4-7.4-2.9-8.5-.4-1.1-1.3-3.8-1.9-6-.6-2.2-1.4-4.7-1.6-5.5-.3-.8-.5-1.7-.5-2-.1-.3-.5-1.1-1.1-1.8-.6-.6-.8-1.2-.5-1.2.3 0-.1-1.7-1-3.8-.8-2-1.4-3.8-1.3-4 .1-.2-.3-1.5-.8-3-1.2-3.2-9.2-28-9.7-30.2-.4-1.7-3.8-11.9-6.7-20-1-3-2.1-6.2-2.3-7-.2-.8-1.4-4.9-2.8-9s-5.5-17-9.2-28.5c-3.6-11.6-7.2-22.4-7.8-24-.6-1.7-1.2-3.5-1.3-4-.2-1.4-16.3-51.3-17.7-55-.7-1.7-1.2-3.2-1.2-3.5-.1-.3-2.3-7.3-5-15.5-2.7-8.3-5-15.6-5.1-16.3-.1-.8-.6-2.1-1-3-.4-.9-.8-2.2-.9-2.7-.2-.6-1.8-5.5-3.6-11s-3.4-10.6-3.5-11.3c-.1-.8-.6-2.1-1-3-.4-.9-.8-2.2-1-2.7-.6-2.5-10.6-33.3-11.6-35.7-.5-1.5-1-3.1-1.1-3.5 0-.4-1.3-4.6-2.9-9.3-1.6-4.7-3.1-9-3.2-9.5-.6-2.5-10.9-34.5-12.4-38.5-.9-2.5-1.6-4.7-1.7-5 0-.3-1.3-4.6-2.9-9.5-2.7-8.4-3.2-10.2-3.4-11.5-.1-.3-.8-2.3-1.7-4.4-.9-2.2-1.8-4.7-2-5.5-.2-.9-2-6.6-4-12.6-2-6.1-3.8-11.5-3.9-12-1.1-4.6-3-10.2-3.8-11.3-.6-.6-.8-1.2-.5-1.2.3 0-.8-3.9-2.4-8.8-1.7-4.8-3.2-9.5-3.4-10.5-.2-.9-.7-2.2-1-2.7-.3-.5-.8-1.8-1-2.7-.3-1.7-9-29-10.2-32.3-.3-.8-.7-2-.9-2.5-.1-.6-2-6.6-4.3-13.4-2.3-6.8-4.1-12.9-4.1-13.6 0-1.3-3.3-5.5-4.4-5.5-.3 0-2.3-1.1-4.4-2.3-5.9-3.8-28.1-15.9-28.3-15.4zM5026 2242.6c-3 1.4-9.1 4.2-13.5 6.2-7.1 3.2-23 11.2-42.2 21.2-3.5 1.8-6.1 3.5-5.9 3.9.2.3 15.1.6 33 .6 35.6 0 33.8-.4 31.1 6.1-.8 1.9-1.4 3.8-1.5 4.2 0 .8-2.8 9.8-3.7 12.2-.4.8-.7 1.8-.8 2.2-.2.5-.3.9-.5 1-.1.2-.3 1.1-.6 2-.7 2.8-1.1 4.2-1.7 5.8-.3.8-2.2 6.7-4.3 13-2 6.3-5.6 17.6-8.1 25-2.4 7.4-4.6 14.2-4.8 15-.2.8-2.7 8.5-5.5 17-2.9 8.5-5.3 15.9-5.4 16.5-.2.5-.5 1.7-.9 2.5-1.2 3.3-12 36.6-12.2 38-.2.8-.4 1.5-.5 1.5-.1 0-.3.7-.5 1.5s-1.6 4.9-3 9-2.7 8.2-2.8 9c-.1.8-.5 1.9-.8 2.5-.5.8-2 5.6-2.3 7.5-.1.3-.6 1.8-1.3 3.5-1 2.7-8.1 24.5-8.7 27-.2.5-.6 1.7-.9 2.5-.5 1.4-3 8.9-3.2 10-.1.3-.4 1.2-.8 2-.6 1.8-13.1 40.3-13.2 41 0 .3-2.3 7-4.9 15-2.7 8-4.9 14.9-5.1 15.5-.1.5-.4 1.7-.7 2.5-1 2.8-8 24.4-8.3 25.5-.1.5-.5 1.8-.9 2.7-.4.9-.9 2.2-1 3-.2.7-.6 2-.9 2.8-.7 1.8-15.8 48.1-16.1 49.5-.2.5-.6 1.7-.9 2.5-.9 2.3-5.9 18.4-6.1 19.5-.1.5-.4 1.4-.7 2-.5.8-1.3 3.4-2.4 7.5 0 .3-2.3 7-4.9 15-2.6 8-4.9 15.2-5.1 16-.2.8-1 3.3-1.8 5.5-1.9 5.1-8.9 26.6-9.1 28-.1.5-.4 1.4-.7 2-.5.8-2 5.6-2.3 7.5-.1.3-.6 1.8-1.3 3.5-.6 1.6-4.3 13.1-8.3 25.5-4 12.4-7.4 23.2-7.8 24-.3.8-.6 1.9-.7 2.5-.2.5-1.7 5.3-3.5 10.5-1.7 5.2-3.3 9.9-3.4 10.5-.2.5-.8 2.3-1.4 3.8-.7 1.6-1.2 3.1-1.2 3.5 0 .4-2.7 9-6.1 19.2-3.3 10.2-6.2 18.9-6.3 19.5-.4 1.6-14.5 45.2-18.3 56.4-1.9 5.8-3.6 10.9-3.8 11.5-.1.6-.5 1.8-.8 2.6-.6 1.6-10.7 32.8-11.1 34.5-.2.5-.5 1.7-.9 2.5-.3.8-4.6 14.3-9.7 30-5 15.7-9.6 29.6-10.1 31-.5 1.4-1.1 3.4-1.4 4.5-.4 1.8-6 19.1-7.3 22.5-.3.8-.6 1.7-.7 2 0 .3-.9 2.8-1.8 5.6-1 2.8-1.9 5.9-2.2 7-.2 1-1.6 5.3-3 9.4-1.5 4.1-2.8 7.9-2.9 8.5-.1.5-1.7 5.5-3.5 11s-3.4 10.4-3.6 11c-.1.5-.7 2.3-1.3 3.8-.7 1.6-1.2 3.1-1.2 3.4 0 .4-2.3 7.7-5.1 16.2-2.8 8.6-5.2 16-5.4 16.6-.1.5-.5 1.9-.9 3-.5 1.1-1.4 3.7-2.2 5.7-.8 2.1-1.1 3.8-.8 3.8.4 0 0 .7-.7 1.7-.8.9-1.2 1.7-1 1.7.4.1-13.6 44.1-17 53.4-1 2.8-1.9 5.5-2 6-.2 1.1-1 3.4-2.5 7.5-.8 2-1.4 4-1.5 4.5-.3 1.2-.5 2.1-10.9 34.2-5.6 17.3-10.7 33.1-11.5 35-.7 1.9-1.3 3.9-1.3 4.3 0 .4-.4 2-1 3.5-1.4 3.7-12.3 37.3-12.7 39.2-.2.8-2.5 7.8-5 15.5-2.6 7.7-4.8 14.4-4.9 15-.1.5-.4 1.4-.7 2-.3.5-1.1 3-1.9 5.5-.7 2.5-3 9.4-5 15.5-2.1 6-3.8 11.2-3.8 11.5-.1.6-1.1 3.7-2.3 7-.5 1.4-1.1 3.4-1.3 4.5-.3 1.1-2 6.5-3.9 12s-3.5 10.4-3.7 11c-.1.5-.4 1.4-.5 2-.2.5-1.4 4.4-2.8 8.5-3.1 9.2-15.1 46.3-15.2 47-.1.6-13.6 42.2-19.5 60-6.6 20.1-13.2 40.4-13.5 42.2-.2.9-.8 2.5-1.3 3.5-.6 1-1.1 2.1-1.1 2.5-.2.9.3-.5-5.6 17.8-2.6 8-4.8 14.9-5 15.5-.1.5-.5 1.7-.8 2.5-.3.8-1.8 5.3-3.3 10-1.4 4.7-3.5 11.2-4.6 14.5-1.1 3.3-2.1 6.4-2.3 7-.1.5-.5 1.8-.9 2.7-.4.9-.9 2.2-1 3-.2.7-.6 2-.9 2.8-.7 1.8-9.8 30.1-10.2 31.5-.1.5-.5 1.7-.8 2.5-.7 1.9-3 9.2-3.3 10.5-.1.5-2.7 8.4-5.7 17.5s-7.3 22.3-9.6 29.3l-4.1 12.8 2.6 8.2c1.4 4.5 2.7 8.8 2.9 9.5.3.7.5 1.6.6 2 .1.4 1.3 3.6 2.6 7.2s2.6 7.2 2.8 8c1.6 6.6 2 6.2 5.9-5.7 2.2-6.5 5.8-17.5 8.2-24.6 2.3-7 4-12.7 3.7-12.7-.3 0-.1-.6.4-1.3.5-.6 1.8-3.9 2.7-7.2 1-3.3 3.2-10 4.8-15 1.7-4.9 3.1-9.4 3.2-10 .1-.5.5-1.6.9-2.3.5-.6.5-1.2.1-1.2-.3 0-.2-.6.3-1.3.5-.6 1.5-3.2 2.3-5.7.7-2.5 2.7-8.8 4.5-14 1.8-5.2 3.3-9.8 3.4-10.2.4-1.7 1-3.6 3.1-9.7 1.2-3.5 2.3-6.9 2.4-7.5.2-1.1 9.4-29.5 16.2-50 2-5.9 3.7-11.3 3.9-12 .1-.6.5-1.8.8-2.6.3-.8 1.2-3.8 2.1-6.5.9-2.8 3-9.2 4.7-14.4 1.7-5.2 3.2-9.9 3.4-10.5.1-.6.7-2.4 1.3-3.9.7-1.6 1.2-3.1 1.2-3.5 0-.4 3.9-12.6 8.6-27.2 9.1-28 9.3-28.6 9.5-29.8 0-.4.5-1.5 1.1-2.5.5-1 1.1-2.6 1.3-3.5.1-.9 2-6.7 4-12.7 2-6.1 3.8-11.7 4-12.5.2-.8 2.8-8.9 5.8-18s8.1-24.8 11.4-35c11.4-35 21.3-65.5 25.8-79.5 6.6-20 14.6-44.8 14.9-46 .2-.6.5-1.7.9-2.5 1.3-3.7 9.9-30.3 10.1-31.3.1-.7.5-1.8.9-2.5.5-.6.6-1.2.2-1.2-.3 0 .1-1.3 1-2.9.8-1.7 1.7-3.8 1.8-4.8.2-1 .6-2.5.9-3.3 1.1-2.8 8-24.4 8.3-25.5.1-.5.5-1.7.8-2.5.3-.8 1.6-4.7 2.8-8.5 1.2-3.9 4-12.4 6.2-19 2.1-6.6 4-12.5 4.1-13 .1-.6.4-1.5.7-2 .5-.8 1.3-3.3 2.4-7.5.1-.7 15.2-47 17.7-54.5 1.1-3.3 2.1-6.5 2.3-7 .1-.6.5-1.8.9-2.7.4-.9.9-2.2 1-3 .2-.7.5-2 .9-2.8 1.1-3 7.9-24.4 8.2-25.9.2-.9 1.3-4 2.4-6.9 1.1-2.9 2-5.4 2-5.5 0-.1.2-.9.4-1.7 1.7-5.3 14.1-43.5 17.2-53 2-6.3 3.9-12.2 4-13 .2-.8 1.5-4.7 2.8-8.5 2.6-7.2 13.9-42.2 14.3-44 .1-.6 1.8-5.5 3.6-11 1.9-5.5 3.6-10.5 3.8-11 .1-.6.4-1.5.6-2 .2-.6 2.2-6.9 4.5-14 2.2-7.2 4.9-15.4 6-18.3 1-2.8 1.9-5.5 2-6 .3-1.4.7-2.7 2.2-7.2.8-2.5 2.3-7.2 3.3-10.5.9-3.3 2.1-6.5 2.4-7 .8-1 2.2-6.9 2.1-8-.1-.3.6-1.9 1.4-3.5.8-1.6 1.5-3.1 1.5-3.2-.1-.2.1-1 .4-1.8 1.6-5.1 3-9.6 3.1-10 .1-.3 2.5-7.9 5.5-17s5.5-16.7 5.6-17c0-.3.3-1.2.7-2 1-2.6 12.9-39.4 13.2-41 .2-.8 2.3-7.6 4.8-15 2.4-7.4 8.2-25 12.7-39 4.6-14 10.9-33.4 14-43 10.9-33.3 15.2-46.5 15.4-47.5.4-1.7 19.6-60.8 21.1-64.5.7-1.9 1.4-4 1.5-4.5.1-.6.6-2 1.1-3.3.5-1.3.9-2.6.9-3 0-.4 3.4-11.1 7.6-23.7 4.2-12.7 7.7-23.5 7.8-24 .1-.6 1.9-6.2 4-12.5s3.9-12.2 4.1-13c.2-.8 1-3.3 1.8-5.5 1.9-5.1 8.9-26.6 9.1-28 .1-.5.4-1.5.7-2 .4-.6 1-2.4 1.4-4 1.3-4.8 1.3-4.9 2.5-8 2-5.7 18.3-55.8 19.4-60 .2-.6.6-1.7.9-2.5.8-1.9 11.8-35.9 12.2-37.4.1-.6.5-1.8.8-2.6 1.1-2.7 4.7-14.5 4.7-15.3 0-.4.7-2.1 1.5-3.7s1.5-3.1 1.4-3.2c-.3-.5 4.4-15.2 5.1-16.1.4-.4.5 62.4.4 139.5-.2 77.2-.5 503.6-.8 947.7-.2 444-.8 807.7-1.3 808.1-.7.7-4.9 1.1-27.3 2.5-2.5.2-8.3.6-13 .9-4.7.4-11.6.8-15.5 1.1-15.1 1-22.3 1.5-28.5 2-3.6.3-10.3.7-15 1-4.7.4-11 .8-14 1-3 .2-9.3.6-14 .9-9.1.7-17 1.2-29 2.1-4.1.3-10.4.8-14 1-3.6.2-10.3.7-15 1-4.7.3-11.2.8-14.5 1-3.3.2-10 .7-15 1-4.9.4-11 .8-13.5 1-2.5.2-8.8.6-14 1-5.2.4-11.7.8-14.5 1-2.7.2-9.3.6-14.5 1-5.2.4-11.7.8-14.3 1-2.6.1-5 .5-5.3.7-.2.3 3.7 5.8 8.8 12.2l9.3 11.6 10-.6c5.5-.3 12-.7 14.5-.9 2.5-.2 9-.7 14.5-1 5.5-.4 12-.8 14.5-1 2.5-.2 8.8-.6 14-1 10-.6 16.7-1.1 29-2 4.1-.3 10.4-.7 14-1 3.6-.2 10.3-.7 15-1 4.7-.4 11-.8 14-1 6.3-.3 21-1.4 29-2 3-.2 10-.7 15.5-1.1 5.5-.4 11.6-.8 13.5-.9 1.9-.2 8.5-.6 14.5-.9 6.1-.4 11.9-1 13-1.3 4.1-1.1-.9 2.4-11 7.7-5.5 2.9-10.4 5.6-11 6-.5.4-5.5 3.1-11 6-9.5 5.1-13 6.9-25.5 13.7-3 1.7-14.9 8.1-26.5 14.3-11.5 6.3-23.2 12.6-26 14.2-2.7 1.5-7.9 4.2-11.5 6-3.6 1.8-6.7 3.6-7 3.9-.3.3-.9.8-1.5 1-.5.2-6.8 3.5-13.8 7.2l-12.8 6.9 3.8 4.1c2.1 2.3 6.5 6.5 9.8 9.4l5.9 5.2 10.6-5.6c5.8-3.1 11.9-6.4 13.5-7.3 1.7-.9 7.1-3.8 12-6.5 5-2.6 11.3-6 14-7.5 2.8-1.5 7.5-4.1 10.5-5.7 3-1.7 8-4.4 11-6 3-1.7 10-5.4 15.5-8.3 5.5-2.9 10.5-5.6 11-6 .6-.4 5.1-2.9 10-5.5 12.8-6.8 21.5-11.5 25-13.5 1.7-.9 7.1-3.9 12-6.5 5-2.6 11.4-6.1 14.3-7.6 12.3-6.8 16.5-9.1 31-16.9 8.3-4.5 15.2-8.4 15.2-8.6 0-.2-1.1-2.3-2.5-4.8s-2.5-4.7-2.5-5c0-.3 2.6-.6 5.8-.6h5.7l.1-109.8c0-60.3.3-508.4.7-995.8l.6-886.1-5.5.2c-3 .1-5.7-.1-5.9-.5-.2-.4.7-2.7 1.9-5.3 2.8-5.5 3-5.2-7.9-10.1-4.4-2-8.8-4.1-9.7-4.6-2.2-1.2-1.3-1.4-7.8 1.6zM2713.5 3058.7c-8 13.5-10.8 18.4-18.6 31.8-2.2 3.8-4.8 8.3-5.8 10-1 1.6-5.8 9.7-10.6 18-4.9 8.2-10 17-11.4 19.3-1.4 2.4-3.7 6.3-5 8.5-1.3 2.3-5.4 9.4-9.1 15.7-11.6 19.8-51.2 87.2-54.5 93-1.8 3-5.4 9.3-8.2 14-9.2 15.8-38.9 66.4-47.8 81.5-9.7 16.5-31.8 54.2-34.5 59-1 1.6-4.8 8.2-8.5 14.5-3.7 6.3-7.6 12.8-8.5 14.5-1 1.6-4.8 8.2-8.5 14.5-3.7 6.3-7.6 12.8-8.5 14.5-1 1.6-4.4 7.5-7.7 13-3.2 5.5-6.2 10.7-6.6 11.5-.4.8-1.6 2.8-2.6 4.5-1.8 2.9-30.6 51.8-34.1 58-3.4 5.8-18.8 32.2-28.8 49.2-5.6 9.4-10.2 17.6-10.2 18.2 0 .5-.3 1.1-.8 1.3-.7.3-5.3 7.9-11 17.8-1 1.9-5 8.7-8.7 15-8.8 14.9-9.9 16.8-12.1 21-1.1 1.9-2.2 3.7-2.5 4-.3.3-2.3 3.6-4.5 7.5-2.3 3.8-7.8 13.2-12.2 20.9-4.5 7.6-8.2 14.1-8.2 14.4 0 .3-.6 1.3-1.4 2.1-.7.9-2.6 4.1-4.2 7.1s-3.1 5.7-3.4 6c-.5.4-11.9 19.8-18 30.4-.9 1.7-11.5 19.7-23.5 40.1-11.9 20.3-24.2 41.3-27.2 46.5-3.1 5.2-6.6 11.2-7.9 13.2-1.3 2.1-2.4 4-2.4 4.3 0 .2-1.6 2.9-3.5 5.9-1.9 3-3.5 5.7-3.5 5.9 0 .3-1.7 3.4-3.8 6.8-4.3 7.1-26.6 45.1-32 54.4-5 8.8-5.8 10.1-18.7 32-6.5 11-12.6 21.3-13.5 23-1 1.6-10.2 17.4-20.5 35s-21.9 37.4-25.8 44c-3.8 6.6-8 13.6-9.2 15.5-1.2 1.9-3.3 5.5-4.7 8-1.4 2.5-8.6 14.9-16 27.5-7.5 12.7-14.5 24.6-15.5 26.5-1.1 1.9-5.1 8.7-8.8 15-15.1 25.6-19.5 33.3-19.5 34.1 0 1.8 16.4 22.1 16.9 20.8.2-.8.7-1.6 1-1.9 1.1-.9 9.1-14.8 9.1-15.8 0-.6.4-1.2.8-1.4.4-.2 1.9-2.3 3.3-4.8s8.8-15.1 16.4-28c7.6-12.9 16.9-28.9 20.7-35.5 3.9-6.6 7.3-12.5 7.8-13 .4-.6 4.1-6.9 8.2-14 4.1-7.2 12-20.7 17.5-30 5.6-9.4 11-18.6 12-20.5 1.1-1.9 7.3-12.5 13.8-23.5 6.5-11 14.9-25.4 18.8-32 3.8-6.6 9.6-16.4 12.8-21.9 3.3-5.4 5.9-10.3 5.9-10.7 0-.5.5-.9 1-.9.6 0 1-.5 1-1.1 0-.6 3-6.1 6.7-12.3 3.7-6.1 7.1-12 7.7-13.1.6-1.1 5-8.5 9.7-16.5 16.8-28.5 29.7-50.6 31.9-54.5 1.2-2.2 3.4-6 5-8.5 1.5-2.5 6-10.1 10-17s8.3-14.2 9.6-16.2c1.3-2.1 2.4-4 2.4-4.3 0-.3 1.1-2.2 2.4-4.3 1.3-2 5.6-9.3 9.6-16.2 4.1-6.9 10.8-18.4 15-25.5 4.2-7.2 10.3-17.5 13.5-23 3.2-5.5 8-13.6 10.5-18 2.6-4.4 12.5-21.3 22-37.5 25.9-44.3 37.5-64.1 46.1-78.5 4.2-7.2 10.1-17.3 13.1-22.5 3.1-5.2 11.7-19.9 19.2-32.7 7.5-12.8 13.6-23.7 13.6-24.3 0-.5.4-1 .9-1s1.7-1.7 2.6-3.8c1-2 2.8-5.3 4-7.2 1.8-2.9 33-56.1 67.8-115.5 3.8-6.6 8.2-14 9.7-16.5s3.8-6.5 5.1-9c1.3-2.5 2.7-4.7 3-5 .3-.3 4-6.4 8.1-13.5 11.8-20.4 21.8-37.4 26-44.2 2.1-3.4 3.8-6.5 3.8-6.8 0-.3 1.1-2.3 2.5-4.4 2.2-3.6 20.6-34.9 31.5-53.6 2.6-4.4 8.7-14.8 13.5-23 4.8-8.3 9.6-16.4 10.5-18 .9-1.7 6.9-11.8 13.2-22.5 6.3-10.7 12.3-20.9 13.2-22.5.9-1.7 2.5-4.4 3.5-6 1-1.7 3.4-5.7 5.3-9 6.1-10.5 19.8-33.9 20.7-35.5.5-.8 5.5-9.3 11-18.7l10.1-17.3-.2-24.9-.3-25-8 13.6zM2750.9 3059.5c-.1 0-.2 7.5-.3 16.7l-.2 16.8 27.1.1c14.8 0 28.6.2 30.5.4 5.5.6 12.3 1.4 14.6 1.9 1.2.2 3.8.7 5.9 1 2 .4 4 .8 4.4 1.1.4.2 1.9.6 3.4.9 6 1.1 18.9 5.9 30.7 11.5 17.8 8.4 33.9 21.7 41.3 34.2 3.9 6.7 8.1 18.4 9.2 25.9.4 2.5.8 4.7 1 5 .1.3.6 3 .9 6.1.4 3.1.9 6.6 1.1 7.8.2 1.1.7 5.6 1 9.8.3 4.3.8 9.8 1 12.3 1.6 16.7 1.9 87.3 1.9 453.5 0 360.7-.3 431.3-1.9 451.5-1.1 14.2-2.7 27.9-4 34-.3 1.4-.7 3.8-1 5.5-.2 1.6-.6 3.7-.8 4.5-.2.8-.7 3.1-1.1 5-.9 4.2-3.4 12.8-4.6 15.5-5.2 12.4-8.5 17.2-18.5 26.9-10.9 10.7-25 18.8-42.8 24.7-9 2.9-11.1 3.5-17.7 4.5-1.9.3-4.1.7-4.7.9-1.3.4-12.1 1.6-18.8 2-2.2.2-16.2.3-31 .4l-27 .1.1 15.7c.1 8.7.2 16.3.3 16.8.1.7 87.5 1 260.6 1H3272V4240l-26.2-.1c-33.4-.2-39.2-.6-51.8-3.5-1.4-.3-3.3-.8-4.4-1-3.5-.7-13.1-3.5-17.6-5.2-2.5-.9-4.7-1.7-5-1.8-.3 0-2.7-1.1-5.5-2.3-21.2-9.3-37-20.8-45.9-33.5-3.5-5.1-7.7-12.5-8.1-14.6-.1-.3-.7-2.5-1.4-5-1.3-4.3-1.6-5.7-2.6-11-.3-1.4-.7-3.4-.9-4.6-.2-1.2-.7-4.5-1.1-7.5-.3-3-.8-6.5-1-7.9-.3-1.4-.7-5.7-1.1-9.5-.3-3.9-.8-9.5-1.1-12.5-1.1-10.1-1.4-441.3-.4-441.9 1.3-.8 237.7-.6 247.1.3 4.1.3 9.2.8 11.3 1.1 8 1.1 11.4 1.6 13.7 2 1.4.3 3.6.7 5 1 2.7.5 6.9 1.4 8.5 1.9.6.1 3 .8 5.5 1.5 4.8 1.3 5 1.3 15.2 5.9 15.4 6.9 31.7 20.4 42.7 35.2 4.7 6.3 15.1 25.1 15.8 28.5.1.6 1.1 3.5 2.2 6.6 1.1 3.1 2.2 6.7 2.5 8 .9 4.6 1.5 7.1 2 8.7.3.9.8 3.5 1.1 5.7.3 2.3.8 5.2 1 6.5.5 2.3.7 4.4 2 15 .8 6.6 1.6 18.5 2 29.3.2 6 .6 11.2 1 11.5.4.4 7.8.7 16.5.7 13.4 0 15.9-.2 16.2-1.5.2-.8.4-93.3.3-205.5v-204h-16.9c-14.6 0-16.9.2-17.1 1.6-.2.8-.6 4-.9 7-.9 7.5-1.4 10.9-2 14.4-.3 1.6-.8 4.6-1.1 6.5-6.4 36.9-16.4 66.6-29.2 86.4-11.1 17.2-29.2 31.2-49.9 38.6-3.3 1.2-6.6 2.4-7.4 2.7-1.9.8-3 1.1-5.8 1.7-1.3.3-3.2.8-4.2 1.1-1 .3-2.9.8-4.2 1-1.3.3-4.5.9-7.3 1.4-5.1 1-9.2 1.6-20.5 2.7-7 .7-242.7 1.3-244.7.6-1-.3-1.3-48.9-1.3-238.4v-237.9l156.3.4c85.9.3 158 .7 160.2 1 2.2.2 8.1.8 13 1.2 5 .3 10.1.8 11.5 1 1.4.2 5.2.6 8.5 1s6.9.9 8 1.1c1.1.2 4.7.9 8 1.4 9.1 1.5 11.8 2 13.7 2.6.9.3 2.7.7 4 1 1.3.3 2.8.6 3.3.8 1.7.4 12.9 3.7 14.3 4.1.7.3 1.4.5 1.7.5 3.3.5 27.5 12.7 35.5 17.9 21 13.6 41.9 35.1 55.7 57.2 7.2 11.5 17.6 32.7 23.2 47.4 1.6 4.4 3.6 9.3 4.2 11 .7 1.6 1.3 3.2 1.3 3.5.1.3.7 1.8 1.3 3.5 1.2 3.2 9.4 28.3 9.7 30 .1.5 1 3.9 2 7.5l1.8 6.5H3665.5l-.1-10c-.1-5.5-.5-17.7-.9-27-.4-9.4-.8-19.9-1-23.5-.5-11.8-1.6-37.4-2-46-.2-4.7-.6-14.8-1-22.5-1.2-27.9-1.5-35.2-2-46-.3-6.1-.7-16.9-1-24-1.9-43.3-3-66.1-3.4-67.5-.1-.3-840.3-.8-903.2-.5zM3683.5 3072c.2 1.1.6 8.8 1 17.2.3 8.4.8 19.7 1 25.2l.5 9.8 6.8 11.7c3.8 6.4 9.4 15.9 12.5 21.1 14.6 25.1 16.7 28.6 17.6 29.7.6.7 1.1 1.5 1.1 1.8 0 .6 12.1 21.7 13 22.5.3.3 1.3 2.1 2.4 4 2.8 5.3 3.2 5.9 38.7 66.7 18.3 31.3 35.1 59.9 37.3 63.8 2.2 3.8 4.4 7.1 4.8 7.3.4.2.8.8.8 1.3 0 .8 6.2 12.1 11 19.9.5.8 4.1 7.1 8.1 14s7.5 12.7 7.8 13c.4.3 1.2 1.6 1.8 3 .7 1.4 2.6 4.7 4.3 7.5 1.7 2.7 4 6.8 5.1 9 1.2 2.2 3 5.1 3.9 6.5 1 1.4 3 4.7 4.5 7.5 1.5 2.7 5.5 9.7 8.9 15.5 3.5 5.8 10 17 14.6 25 4.7 8 8.7 14.7 9 15 .3.3 1.3 2.1 2.4 4 1 1.9 2.6 4.8 3.6 6.5 1 1.6 3.7 6.4 6 10.5 2.4 4.1 4.7 7.6 5.1 7.8.5.2.9.8.9 1.4 0 .8 8.7 16 31.4 54.5 1.7 2.9 3.4 5.3 3.9 5.3.4 0 .6-.4.3-.8-.3-.5-.7-3.7-1.1-7.3-.3-3.5-.7-8.4-1-10.9-.5-5.4-1.3-15.4-2.1-25.9-.9-12.8-1.1-14.1-2.5-15.9-.8-.9-2-2.8-2.7-4.1-.8-1.3-2.2-3.8-3.1-5.5-1-1.7-13.6-23.4-28.1-48.1-14.5-24.8-28.4-48.6-31-53-4.6-8-13.3-22.7-15-25.5-.5-.8-3.4-5.8-6.3-11-3-5.2-8.3-14.5-11.9-20.5-8.6-14.5-18-30.5-19.4-33-4.7-8.4-37.9-65.1-38.4-65.5-.3-.3-1-1.4-1.6-2.5-3.9-7.2-7.8-14-11.8-20.8-2.5-4.3-4.6-8-4.6-8.3 0-.3-.5-1-1-1.7-.6-.7-6.1-9.8-12.1-20.2-6.1-10.5-14.3-24.4-18.1-31-3.9-6.6-7.9-13.6-9-15.5-1.1-1.9-5.1-8.7-8.8-15-14.2-24-27.5-46.9-33.4-57.2-5.9-10.5-7.9-12.9-7.1-8.8zM1691 3331.9l-11.6 5.6 1.4 4c.7 2.2 1.5 4.7 1.7 5.5.2.8 2.1 6.9 4.3 13.5 2.2 6.6 6.8 20.8 10.2 31.5 3.4 10.7 8.7 26.9 11.6 36 3 9 5.4 16.8 5.4 17.2 0 .3.5 1.9 1.2 3.5.6 1.5 1.2 3 1.3 3.3.3 1.3 8.7 27.7 9.2 29 .4.8.7 1.7.8 2 0 .3.6 2.1 1.2 4s3 9.3 5.3 16.5c2.2 7.1 4.4 13.7 4.7 14.5.4.8.7 1.8.8 2.2.2.5.3.9.5 1 .1.2.3 1 .5 1.8.3 1.6 7.2 23.4 8.2 26 .4.8.7 1.7.8 2 0 .3 1.6 5.2 3.5 11s3.4 10.7 3.5 11c.1.6 10.5 32.9 11.2 35 .3.8.7 1.9.8 2.5.2.5 1.4 4.4 2.8 8.5s5.7 17.6 9.7 30c3.9 12.4 7.3 23.1 7.5 23.8.3.7.5 1.4.5 1.7.1.3.8 2.1 1.6 4.2.9 2 1.7 4.4 1.9 5.2.3 1.6 6.2 20.2 7.2 23.1.3.8.7 2 .8 2.6.2.6 1.6 5.1 3.3 10 1.6 4.9 4.6 13.8 6.5 19.9 4.3 13.6 20.3 62.8 26.8 83 2.7 8.2 4.9 15.2 4.9 15.6 0 .4.5 2 1.2 3.6.6 1.5 1.2 3.2 1.3 3.8.5 1.9 7.7 24 9.6 29.5 1.1 3 2.2 6.4 2.4 7.5.3 1.1.9 3.1 1.4 4.5.5 1.4 4 11.9 7.6 23.5 3.7 11.5 6.9 21.7 7.2 22.5.3.8.7 1.9.8 2.5.5 2 9.7 30.1 11.3 34.5.9 2.5 1.7 4.7 1.7 5 .1.3 1 3.2 2 6.5 1.1 3.3 2 6.2 2 6.5.1.3.4 1.2.8 2 .9 2.4 4.7 14.3 5.2 16.3.2.9 3.2 5.7 6.6 10.5 16.9 23.6 42.1 58.2 42.4 58.2.3 0-6.4-21-7.1-22.2-.3-.4-.7-1.6-.9-2.5-.2-1-1.9-6.5-3.8-12.3-1.9-5.8-4.4-13.7-5.6-17.5-1.2-3.9-2.5-7.7-2.8-8.5-.3-.8-.7-2-.8-2.5-.3-1.2-6.4-20.3-7.3-22.5-.3-.8-.6-2-.8-2.5-.6-2.4-10.9-34.1-14.5-45-2.2-6.6-4.2-12.7-4.4-13.5-.2-.8-2.5-8.3-5.3-16.5-9.3-28.3-16.5-51-16.3-51.3.1-.1-.6-1.6-1.4-3.2-.8-1.6-1.5-3.1-1.4-3.2 0-.2-.7-3-1.7-6.3s-1.8-6.2-1.9-6.5c0-.3-.5-1.9-1.2-3.5-1.1-2.9-12.5-38-12.9-40-.3-1.3-11.4-35.5-12.1-37.5-.4-.8-.7-1.7-.7-2-.2-.6-7.9-24.5-11.6-36-3.8-11.5-15.4-47.4-15.5-48-.1-.3-.4-1.2-.8-2-1.1-3-5.8-18-5.8-18.5 0-.3-.8-2.9-1.8-5.7-1.9-5.3-8.9-27-9.6-29.8-.5-1.8-7.4-22.8-8.2-25-.4-.8-.7-1.7-.8-2 0-.3-1.5-5-3.3-10.5-1.8-5.5-3.2-10.3-3.2-10.8 0-.4-.7-2.1-1.5-3.7s-1.5-3.3-1.5-3.7c0-.5-2.1-7.3-4.7-15.3s-4.7-14.7-4.8-15c-.1-.3-.5-1.9-1-3.5-.4-1.7-1-3.5-1.4-4-.3-.6-.6-1.5-.8-2-.6-2.7-1.5-5.6-3.8-12.5-1.5-4.1-2.8-8.6-3.1-10-.3-1.3-1-3-1.6-3.7-.6-.7-.8-1.3-.4-1.3s0-1.3-.9-3c-.8-1.6-1.4-3.1-1.3-3.3.2-.2-3.1-11.1-6-19.7-.3-.8-.6-2-.8-2.5-.1-.6-2-6.4-4.2-13-4.3-13.1-12.6-38.7-12.8-39.5 0-.3-.3-1.2-.7-2-.3-.8-1.1-3.3-1.7-5.5-.6-2.2-1.4-4.7-1.7-5.5-.3-.8-.7-2-.9-2.5-.1-.6-3.5-10.9-7.4-23-4-12.1-8.7-26.7-10.5-32.5-1.8-5.8-3.7-11.4-4.2-12.6-.8-2-1.2-1.9-12.3 3.5zM1330.8 3902.7c-.4.7-.3 345.7.1 347.4 0 .4 2.2.5 4.9.4 2.6-.1 5.1 0 5.5.2.4.3-.4 2.5-1.8 5-1.3 2.5-2.3 4.9-2 5.3.5.8 5.9 3.8 21 12 3.3 1.8 8.3 4.5 11 6 4.4 2.4 13.4 7.3 36.5 19.8 3.6 1.9 8.8 4.7 11.5 6.2 9.8 5.3 16.1 8.8 24 13 4.4 2.4 9.4 5.1 11 6 1.7 1 6.6 3.6 11 6 12 6.4 18.7 10.1 22 12 1.7.9 7.3 4 12.5 6.7 5.2 2.8 11.8 6.3 14.5 7.8 2.8 1.5 9.3 5.1 14.5 8 5.2 2.9 13.1 7.1 17.5 9.5 6.9 3.7 57.3 31 72 39 2.8 1.5 12.1 6.6 20.8 11.4 8.7 4.7 16 8.6 16.3 8.6.2 0 2.1 1 4.2 2.3 2 1.3 8.2 4.7 13.7 7.7 12.1 6.4 20.3 10.8 27 14.5 2.8 1.5 7.7 4.2 11 6 3.3 1.8 8.7 4.7 12 6.5 26.4 14.4 33.5 18.2 33.5 17.8 0-.2-7.7-11-17-23.9-12.6-17.3-18-23.9-20.8-25.5-2-1.1-7.7-4.2-12.7-6.9-9.2-4.9-14.2-7.6-23-12.5-4.6-2.5-8.3-4.5-24-13-3.3-1.8-8.2-4.5-11-6-2.7-1.5-9-4.9-14-7.5-4.9-2.6-9.4-5.1-10-5.5-.5-.4-5.5-3.1-11-6-5.5-3-11.3-6.1-13-7-9.4-5.2-26.2-14.3-34.5-18.8-3.6-1.9-8.7-4.7-11.5-6.2-11.3-6.2-24.4-13.3-36-19.5-3.8-2.1-9.2-5-12-6.5-17.5-9.5-39.2-21.3-46-25-9.4-5.1-16-8.6-23.5-12.7-6.2-3.5-12.9-7.1-24.5-13.3-4.4-2.4-8.2-4.5-8.5-4.7-.3-.3 2.7-.2 6.5.1 3.9.3 10.4.8 14.5 1.1 7 .5 10.6.7 27.8 2 3.7.3 10.3.7 14.7 1 4.4.3 11.2.8 15 1.1 3.9.2 10.2.7 14 .9 8.7.7 18.3 1.3 27.8 2 3.9.3 10.4.8 14.2 1 3.9.3 9.9.7 13.5 1 3.6.2 10.3.7 15 1.1 4.7.3 10.5.7 13 .9 2.5.2 9.2.6 15 1 5.7.3 10.8.9 11.2 1.1 1.8 1.1.6-2.3-1.7-5.1-1.4-1.7-5.6-7.2-9.3-12.4-4-5.7-7.5-9.5-8.7-9.7-1.1-.2-6.3-.6-11.5-.9-5.2-.3-11.7-.8-14.5-1-2.7-.2-9.3-.7-14.5-1-5.2-.4-11.1-.8-13-1-1.9-.2-8.2-.7-14-1-5.8-.4-12.1-.9-14-1-1.9-.1-8-.6-13.5-.9-5.5-.4-12.5-.9-15.5-1.1-3-.2-9.3-.7-14-1-4.7-.3-11-.8-14-1-3-.2-9.5-.7-14.5-1-19.3-1.4-37.1-2.7-41.5-3-1.9-.2-8.7-.6-15-1-11.5-.8-16.9-1.2-18.2-1.4-.5-.1-.8-68-.8-151v-150.8l-7.2-10c-4-5.5-8.1-11.1-9.1-12.4-.9-1.3-3.3-4.6-5.1-7.2-1.9-2.6-3.6-4.4-3.8-4zM2103.1 4285.7c1.8 2.4 18.1 21.5 19.4 22.8.7.7 42.2 1.1 126 1.1 68.8 0 550.1.4 1069.8.7 519.6.4 944.7.5 944.7.2 0-.2-2.6-3.5-5.8-7.2-3.1-3.8-7.7-9.3-10-12.3l-4.3-5.4-470.9-.4-470.9-.4-.3 8.9-.3 8.8h-578l-.5-8.9-.5-9-309.9-.3c-296.5-.3-309.8-.3-308.5 1.4zM4300.8 4355.8c-.2.7-75.1 60.7-102.3 82.1-3.8 3-7.8 6.3-8.8 7.3-1 1-2.1 1.8-2.6 1.8-.4 0-1.6.8-2.7 1.8-1.7 1.6-30.5 24.8-49.4 39.7-4.1 3.3-8.4 6.7-9.5 7.6-1.7 1.5-42.5 33.9-73.5 58.5-5.8 4.6-11 8.8-11.7 9.3-.6.6-11.6 9.3-24.5 19.5-12.8 10.2-23.9 19.1-24.6 19.7-.8.6-4.8 3.9-9 7.2-4.3 3.3-7.9 6.3-8.2 6.7-.3.3-2.1 1.7-4 3s-3.7 2.7-4 3c-.3.4-19.6 15.9-43 34.5s-52.4 41.8-64.5 51.4c-26.8 21.4-16 12.8-76 60.5-28 22.3-52.6 41.9-54.5 43.5-1.9 1.6-8 6.5-13.5 10.8-5.5 4.4-32.3 25.7-59.5 47.4-27.2 21.7-52.4 41.7-55.9 44.4-3.6 2.8-7.9 6.2-9.5 7.7-1.7 1.4-15.5 12.5-30.6 24.4-41.6 33.1-49.4 39.2-51 40.7-.8.7-11.4 9.1-23.5 18.7s-22.7 18-23.5 18.7c-.8.7-3.1 2.5-5.1 4-2 1.6-5.6 4.5-8 6.5-2.4 2-13.6 10.9-24.9 19.8-11.3 9-21.7 17.2-23.1 18.4-1.4 1.1-4.3 3.4-6.4 5.1-2.2 1.6-6.7 5.2-10.1 8-3.4 2.7-7.8 6.3-9.9 8-2.1 1.6-17.6 14-34.4 27.4-16.8 13.4-43.6 34.7-59.6 47.4-15.9 12.7-41.1 32.8-56 44.7-14.8 11.9-27.5 21.9-28.2 22.3-1 .6-53.9-40.7-101.3-79.2-1.9-1.5-20.8-16.7-42-33.6-21.1-16.9-38.9-31.2-39.5-31.7-.5-.4-47.8-38.2-105-83.9-57.2-45.6-104.7-83.5-105.5-84.2-2-1.7-124.8-99.8-153-122.2-12.4-9.9-23.2-18.5-24-19.2-.8-.7-21.7-17.4-46.5-37.2l-45-36h-41l2.6 2.2c3.3 2.8 8.7 7.2 16.9 13.6 3.6 2.9 8.1 6.4 10 8 1.9 1.5 30.7 24.5 64 51.1s61.1 49 61.8 49.7c.7.7 1.7 1.3 2 1.3.4 0 1.8 1 3.2 2.3 1.4 1.3 14 11.5 28 22.6 14 11.2 27.3 21.9 29.5 23.7 5.9 4.8 172.8 137.9 181 144.4 3.9 3 7.2 5.7 7.5 6 .3.4 2.8 2.4 5.5 4.6 2.8 2.2 5.9 4.7 7 5.6 1.1.9 9.4 7.6 18.5 14.8 9.1 7.2 18.5 14.7 20.9 16.8 2.4 2 5.1 4.1 6 4.6.9.5 1.8 1.2 2.1 1.5.3.3 7.3 6 15.5 12.6 8.3 6.5 15.7 12.5 16.5 13.2.8.8 19 15.3 40.4 32.3 21.4 17.1 38.6 31 38.2 31-.4 0-4-1.8-7.9-3.9-4-2.1-9.7-5.2-12.7-6.9-3-1.6-7.5-4.1-10-5.4-2.5-1.4-8.1-4.4-12.5-6.8-4.4-2.4-8.4-4.6-9-5-.5-.4-5.7-3.2-11.5-6.2-5.8-3.1-12.1-6.4-14-7.5-11.4-6.4-32.4-17.7-39-21-3-1.6-5.7-3.1-6-3.4-.3-.3-5.9-3.4-12.5-6.9-6.6-3.4-12.4-6.6-13-7-1-.7-6.9-3.9-25-13.5-4.9-2.6-9.4-5.1-10-5.5-.5-.4-5.5-3.1-11-6s-11.3-6-13-7c-3.2-1.8-11.4-6.3-23-12.5-3.8-2.1-8.3-4.5-10-5.5-1.6-1-6.6-3.7-11-6-4.4-2.4-11.6-6.2-16-8.6-4.4-2.4-10.5-5.6-13.5-7.1-3-1.6-5.7-3.1-6-3.4-.3-.3-1.8-1.2-3.5-2-1.6-.9-5.5-2.9-8.5-4.6-5.9-3.3-25.8-14-38-20.6-4.1-2.2-7.9-4.3-8.5-4.7-.5-.4-5.5-3.1-11-6s-12.2-6.5-15-8c-5.7-3.1-13.9-7.6-23.5-12.8-3.6-1.9-8.9-4.8-11.7-6.3-10.3-5.6-15.9-8.7-23.8-12.9-4.4-2.4-8.4-4.6-9-5-.5-.4-4.8-2.7-9.5-5.2s-18.8-10.1-31.5-17c-12.6-6.9-27-14.7-32-17.3-4.9-2.6-9.4-5.1-10-5.5-.5-.4-5-2.9-10-5.5-4.9-2.6-11.5-6.1-14.5-7.8-8.7-4.7-14.9-8.1-23.5-12.7-4.4-2.4-11.5-6.3-15.9-8.7-4.3-2.3-8-4.3-8.2-4.3-.1 0-2.9-1.5-6.1-3.4-3.2-1.8-9.4-5.2-13.8-7.6-4.4-2.3-15.6-8.4-25-13.5-27.1-14.8-33.6-18.3-39.5-21.3-3-1.5-5.7-3-6-3.3-.3-.3-1.8-1.2-3.5-2-1.6-.9-5.5-2.9-8.5-4.6-3-1.7-11.1-6-18-9.7-6.9-3.7-13.2-7.1-14-7.6-.8-.5-3.5-2-6-3.3-2.5-1.3-7-3.8-10-5.4-3-1.7-8.6-4.7-12.5-6.8-3.8-2.1-9.2-5-12-6.5-6-3.3-13.5-7.4-23-12.5-3.8-2.1-11.9-6.5-18-9.8-6-3.3-13.2-7.2-16-8.7-14.5-7.9-21.2-11.5-23.5-12.7-1.9-1-9.1-1.3-29-1.3-14.7 0-26 .4-25.5.9.6.4 5.5 3.2 11 6.1 5.5 3 11.8 6.3 14 7.5 2.2 1.2 7.2 3.9 11 6 3.9 2 11.3 6.1 16.5 9 5.2 2.9 13.1 7.2 17.5 9.5 4.4 2.4 10.4 5.6 13.3 7.1 2.8 1.6 7.8 4.3 11 6 3.1 1.7 8 4.4 10.7 5.9 5.6 3.1 14.6 8 25 13.5 3.9 2.1 8.8 4.8 11 6 4.9 2.8 15.6 8.5 25.5 13.8 4.1 2.2 8.9 4.7 10.5 5.7 1.7 1 6.2 3.4 10 5.5 8 4.3 15.2 8.2 31 16.8 6.1 3.3 13.3 7.2 16 8.7 2.8 1.5 10 5.4 16 8.7 6.1 3.3 15.1 8.2 20 10.8 5 2.7 10.8 5.8 13 7 5.4 3 38.2 20.8 47.5 25.8 4.1 2.2 8 4.3 8.5 4.7.6.4 5.5 3.1 11 6 12.9 6.8 21.3 11.4 29.8 16.2 3.8 2.1 7 3.8 7.2 3.8.2 0 3.4 1.7 7.2 3.8 3.7 2.2 10.9 6 15.8 8.7 5 2.7 10.4 5.6 12 6.5 1.7 1 6.6 3.6 11 6 4.4 2.3 10.3 5.5 13 7 2.8 1.5 8.6 4.7 13 7 4.4 2.4 11.2 6.1 15 8.2 3.9 2.1 8.6 4.7 10.5 5.6 1.9.9 3.7 2 4 2.3.3.3 3.2 1.9 6.5 3.5s6.2 3.1 6.5 3.5c.3.3 2.8 1.7 5.6 3.1 2.7 1.4 6.6 3.5 8.5 4.5 1.9 1.1 7.5 4.1 12.4 6.8 5 2.6 10.4 5.6 12 6.5 1.7 1 5.9 3.3 9.5 5.2 14.3 7.7 22.8 12.3 29.3 16 3.8 2.1 7 3.8 7.2 3.8.2 0 3.4 1.7 7.2 3.8 3.7 2.1 10.4 5.8 14.8 8.2 4.4 2.3 10.3 5.5 13 7 2.8 1.5 8.6 4.7 13 7 4.4 2.4 10.9 5.9 14.5 7.9 3.6 2 8.7 4.8 11.5 6.1 2.7 1.4 5.6 3.1 6.3 3.7.7.7 1.7 1.3 2.2 1.3.4 0 3.9 1.7 7.7 3.8 7.8 4.4 16.7 9.3 26.8 14.7 3.9 2.1 8.4 4.5 10 5.5 1.7.9 7.1 3.9 12 6.5 5 2.6 11.4 6.1 14.3 7.6 2.8 1.6 7.6 4.2 10.5 5.8 2.8 1.5 10.2 5.5 16.2 8.8 6.1 3.3 14.2 7.7 18 9.8 3.9 2.1 9.3 5 12 6.5 2.8 1.5 11.1 6 18.5 10.1 7.4 4 16.7 9 20.5 11.1 3.9 2.1 9.5 5 12.5 6.5 3 1.6 5.7 3.1 6 3.4.3.3 5.5 3.2 11.5 6.4 6.1 3.2 12.4 6.6 14 7.5 1.7.9 6.6 3.6 11 6 4.4 2.3 10.3 5.5 13 7 2.8 1.5 8.2 4.4 12 6.5 3.9 2.1 8.4 4.5 10 5.5 1.7.9 7.1 3.9 12 6.5 5 2.7 10.5 5.7 12.3 6.7 1.9 1 7.3 3.9 12 6.5 4.8 2.5 10.1 5.3 11.7 6.3 1.7 1 6.4 3.5 10.5 5.7 9.3 5 17 9.2 28 15.3 12 6.6 11.4 6.5 14.1 1.4 1.2-2.5 2.6-4.7 2.9-4.9.4-.3 1.8 1.6 3 4.1 2.6 4.9 3.9 6.2 4.9 4.8.3-.5 3.8-2.5 7.6-4.5 3.9-2 9.9-5.2 13.5-7.1 3.6-1.9 10.1-5.4 14.5-7.8 4.4-2.3 9.8-5.3 12-6.5 5.1-2.8 12.9-7.1 22.5-12.2 9.1-4.9 30.6-16.6 37.5-20.3 2.8-1.5 8.6-4.7 13-7 4.4-2.4 10.7-5.8 14-7.6 3.3-1.8 8-4.4 10.5-5.7 5.9-3.2 54.3-29.3 59.8-32.3 2.3-1.3 8.6-4.7 14-7.5 5.3-2.9 12.2-6.7 15.3-8.5 3.1-1.9 6.1-3.4 6.7-3.4.6 0 1.7-.6 2.4-1.3.7-.6 3.8-2.4 6.8-3.9 5.2-2.6 11.9-6.2 27.5-14.7 3.9-2.1 10.2-5.6 14-7.6 3.9-2.1 14.2-7.7 23-12.5s19.6-10.6 24-13c4.4-2.3 10.7-5.7 14-7.5 11.4-6.2 65-35.2 73-39.5 4.4-2.4 9.3-5 11-6 1.6-.9 8.4-4.5 15-8s12.5-6.6 13-7c.6-.4 4.2-2.4 8-4.5 6.4-3.4 9.8-5.2 25-13.5 2.8-1.5 8.6-4.7 13-7s10.3-5.5 13-7c2.8-1.5 7.7-4.2 11-6 3.3-1.8 8.3-4.5 11-6 2.8-1.5 8.6-4.6 13-7 4.4-2.3 9.4-5 11-6 1.7-1 7.1-3.9 12-6.5 8.5-4.5 15.2-8.1 27-14.5 2.8-1.5 8.2-4.4 12-6.5 3.9-2.1 9.3-5 12-6.5 4.8-2.7 7.1-3.9 25.5-13.8 4.7-2.5 14.5-7.8 21.9-11.9 7.4-4 13.8-7.3 14.3-7.3.4 0 .8-.4.8-.9s1.2-1.2 2.7-1.6c1.5-.3 3.8-1.4 5.2-2.4 1.4-.9 4.4-2.6 6.6-3.6 2.2-1.1 4.2-2.2 4.5-2.5.3-.3 2.8-1.7 5.5-3.1 2.8-1.5 7.7-4.1 11-5.9 3.3-1.8 8.3-4.5 11-6 2.8-1.5 9.1-4.9 14-7.5 5-2.6 10.4-5.6 12-6.5 1.7-1 6.6-3.7 11-6 4.4-2.4 9.9-5.3 12.3-6.6 2.3-1.3 8.6-4.7 14-7.5 5.3-2.9 11.1-6 12.7-6.9 3.1-1.8 8.4-4.7 21.5-11.7 4.1-2.3 15.4-8.3 25-13.6 9.6-5.2 21.6-11.6 26.5-14.2 5-2.6 9.5-5.1 10-5.5.6-.4 6-3.3 12-6.5 6.1-3.2 11.5-6.1 12-6.5.6-.4 4.8-2.7 9.5-5.2 19.4-10.3 24.8-13.3 31.3-16.9 3.8-2.2 7.1-3.9 7.3-3.9.2 0 4.3-2.2 9.1-4.9 4.9-2.6 12-6.5 15.8-8.6 3.9-2 9.3-5 12-6.5 2.8-1.5 8.6-4.7 13-7s10.4-5.6 13.3-7.1c14.4-7.9 25.1-13.7 35.7-19.4 3.9-2.1 9.3-5 12-6.5 2.8-1.5 8.2-4.4 12-6.5 3.9-2.1 9.3-5 12-6.5 2.8-1.5 8.6-4.6 13-7 4.4-2.3 10.3-5.5 13-7 2.8-1.5 7.3-4 10-5.5 2.8-1.5 9.7-5.2 15.5-8.3 5.8-3 11-5.8 11.5-6.2.6-.4 5.5-3.1 11-6s11.4-6.1 13-7c1.7-1 6.2-3.4 10-5.5 20.1-10.7 24.5-13.1 29.8-16.1 3.2-1.9 6-3.4 6.3-3.4.2 0 4.3-2.2 9.1-4.9 8.5-4.6 14.8-8 29.1-15.7 3.7-2 8.5-4.7 10.7-5.9 2.2-1.2 8.5-4.6 14-7.6 5.5-2.9 11.4-6.2 13-7.2 1.7-1 3.8-2 4.8-2.3.9-.4 1.7-.9 1.7-1.3 0-.3-3-2.7-6.8-5.2-3.7-2.5-8.9-6.1-11.5-8-4.7-3.3-4.9-3.3-7.6-1.8-1.5.9-7.2 4-12.7 6.9-5.4 2.9-13.7 7.4-18.4 10-4.7 2.6-12.1 6.6-16.5 9-4.4 2.3-10.7 5.7-14 7.5-20.8 11.3-31.6 17.1-36 19.5-2.7 1.5-11.1 6-18.5 10s-15.7 8.5-18.5 10c-2.7 1.5-9.5 5.1-15 8-5.5 2.9-10.4 5.6-11 6-.5.4-4.8 2.8-9.5 5.3-4.7 2.4-11.4 6.1-15 8.1-3.6 2-7.7 4.2-9.2 4.7-1.6.6-2.8 1.5-2.8 2s-.5.9-1.1.9c-1 0-33.3 17.3-82.4 44-2.7 1.5-8.6 4.6-13 7-4.4 2.4-9.8 5.3-12 6.5-2.2 1.2-6.9 3.8-10.5 5.7-19.2 10.4-23.2 12.5-30.4 16.5-4.3 2.4-8.2 4.3-8.7 4.3s-.9.4-.9 1c0 .5-.8 1-1.7 1-1 0-2.9.9-4.3 2s-2.8 2-3.1 2c-.4 0-6 2.9-12.4 6.5-6.5 3.6-12.2 6.5-12.6 6.5-.4 0-1.4.6-2.1 1.2-.7.7-3.8 2.5-6.8 4-5.7 2.8-18.8 9.9-32.4 17.4-4.3 2.4-8.2 4.4-8.6 4.4-.5 0-1 .3-1.2.7-.1.5-3 2.1-6.3 3.8-3.2 1.6-8.6 4.5-12 6.3-3.3 1.9-10.7 5.9-16.5 8.9-5.8 3.1-11.8 6.4-13.5 7.3-1.6 1-6.4 3.5-10.5 5.8-4.1 2.2-15.6 8.3-25.5 13.7-9.9 5.4-21.4 11.6-25.5 13.8-4.1 2.2-8.8 4.7-10.5 5.7-1.6.9-7 3.9-12 6.5-4.9 2.7-10.8 5.8-13 7-15.1 8.4-30.6 16.5-31.5 16.5-.5 0-1 .3-1 .7 0 .5-1 1.3-2.3 1.8-4.6 2.2-15.2 8-15.7 8.6-.3.3-1.6 1-3 1.4-1.4.4-4.1 1.8-6 3-1.9 1.2-6.9 4-11 6.2-9.2 4.9-19.9 10.7-26.5 14.3-8.1 4.5-15.4 8.4-25 13.5-4.9 2.6-10.3 5.6-12 6.5-3.2 1.8-10.5 5.8-25 13.5-4.9 2.6-13.3 7.1-18.5 10-5.2 2.9-13.1 7.2-17.5 9.5-4.4 2.4-9.3 5.1-11 6-1.6.9-8.4 4.5-15 8s-12.4 6.6-13 7.1c-.5.4-4.6 2.6-8.9 4.9-4.4 2.3-10.2 5.4-13 6.9-4.5 2.5-12.9 7-36.6 19.9-3.6 1.9-8.7 4.7-11.5 6.2-2.7 1.5-8.6 4.7-13 7s-12.7 6.8-18.5 10c-5.8 3.1-13.6 7.4-17.5 9.5-3.8 2.1-9.2 5-12 6.5-2.7 1.5-9 4.9-14 7.5-4.9 2.6-9.4 5.1-10 5.5-.5.4-5.9 3.3-12 6.5-6 3.2-15.5 8.3-21 11.3-12.3 6.7-17.9 9.8-47 25.4-6.6 3.6-22.9 12.4-36.2 19.6-13.4 7.3-28.7 15.5-34 18.3-5.4 2.9-10.2 5.5-10.8 5.9-.5.4-5.9 3.4-12 6.6-6 3.1-13.2 7-15.8 8.6-2.6 1.5-5.2 2.8-5.7 2.8s-1.5.6-2.2 1.2c-.7.7-3.1 2.1-5.3 3.1l-4 1.7 3.4-2.7c6.7-5.4 147.7-117.8 164.6-131.2 3.9-3.1 7.7-6.1 8.5-6.8.8-.6 5.8-4.6 11-8.8 5.2-4.1 10.9-8.6 12.5-10 1.7-1.3 12.7-10.1 24.5-19.5 11.8-9.3 22-17.3 22.5-17.8.6-.4 14.5-11.6 31-24.7 16.5-13.2 30.2-24.2 30.5-24.5.3-.3 3-2.4 6-4.7 3-2.3 6.7-5.3 8.2-6.5 1.4-1.3 5-4.2 8-6.5 2.9-2.3 13.7-10.8 23.9-19 10.3-8.1 20.4-16.2 22.5-17.8 2-1.7 17.7-14.2 34.8-27.8 17.1-13.7 32.6-26.1 34.5-27.5 7-5.6 15.7-12.6 19.1-15.3 1.9-1.5 23.1-18.4 47-37.4s44.2-35.1 45-35.8c3.5-2.8 11.6-9.3 13-10.4.8-.7 5.8-4.7 11-8.8 5.2-4.2 11-8.9 12.9-10.3 13.8-11 40-31.7 41.6-33 1.1-.9 5.6-4.5 10-8s9.6-7.7 11.5-9.2c1.9-1.6 17.5-14 34.5-27.5 17.1-13.6 32.6-25.9 34.5-27.5 1.9-1.6 18.8-15 37.5-29.9 18.7-14.9 34.5-27.4 35-27.9 1-.8 34.6-27.6 37.5-29.9.8-.7 6.7-5.4 13.1-10.5 6.4-5.1 15.1-12 19.4-15.3 4.2-3.3 8.2-6.5 8.8-7 1.2-1 31.6-25.3 77.7-62 12.4-9.8 22.7-18.2 23-18.5.3-.3 1.4-1.3 2.6-2.1 1.1-.8 4.1-3 6.5-5.1 2.4-2 6.7-5.4 9.6-7.7l5.1-4-9-9.6c-5-5.2-9.2-9.5-9.3-9.5-.2 0-.5.4-.7.8z"/></svg>