<?xml version="1.0" standalone="no"?>
<!DOCTYPE svg PUBLIC "-//W3C//DTD SVG 20010904//EN"
 "http://www.w3.org/TR/2001/REC-SVG-20010904/DTD/svg10.dtd">
<svg version="1.0" xmlns="http://www.w3.org/2000/svg"
 width="107.000000pt" height="107.000000pt" viewBox="0 0 107.000000 107.000000"
 preserveAspectRatio="xMidYMid meet">
<metadata>
Created by potrace 1.11, written by Peter Selinger 2001-2013
</metadata>
<g transform="translate(0.000000,107.000000) scale(0.100000,-0.100000)"
fill="#000000" stroke="none">
<path d="M605 1040 c-27 -4 -72 -11 -100 -15 -27 -3 -61 -8 -75 -10 -14 -2
-45 -7 -70 -10 -25 -3 -56 -8 -70 -10 -14 -2 -50 -6 -80 -10 -94 -11 -86 1
-124 -190 -3 -11 -21 -104 -42 -206 l-37 -187 129 -148 c206 -238 194 -227
229 -219 27 6 119 23 215 40 19 3 67 12 105 20 39 8 86 17 105 20 19 3 58 10
85 15 l51 11 67 272 c37 149 68 282 69 294 2 17 -36 56 -180 182 -125 110
-190 161 -205 160 -12 -1 -44 -5 -72 -9z m118 -91 l42 -41 -60 37 c-74 46 -73
45 -46 45 12 0 40 -18 64 -41z m-283 -10 c-14 -12 -77 -71 -141 -133 -182
-175 -192 -184 -186 -161 4 11 8 31 11 45 2 14 12 61 21 105 9 44 19 88 21 99
6 30 -2 28 189 52 28 3 51 7 52 8 1 1 15 2 30 3 l28 2 -25 -20z m149 -231 c29
-128 54 -241 57 -251 2 -13 -1 -17 -11 -14 -7 3 -89 26 -182 52 -92 25 -199
55 -236 66 l-68 20 111 107 c197 188 265 251 270 252 3 0 30 -105 59 -232z
m381 -2 c0 -5 -10 -17 -22 -28 -13 -11 -50 -45 -83 -77 -103 -98 -155 -144
-159 -140 -5 5 -106 452 -106 468 0 6 83 -40 185 -102 102 -61 185 -116 185
-121z m6 -98 c-3 -7 -23 -92 -46 -188 -24 -96 -46 -179 -50 -183 -4 -4 -39 29
-78 75 l-71 83 106 100 c59 55 111 105 117 112 14 16 26 16 22 1z m-576 -158
c124 -34 226 -63 227 -65 4 -3 -256 -259 -267 -263 -4 -2 -45 70 -90 160 -46
90 -86 168 -89 173 -4 6 -13 23 -19 39 -10 23 -10 27 1 23 7 -2 114 -33 237
-67z m-247 -65 c31 -63 53 -115 47 -115 -5 0 -10 3 -10 8 -1 4 -28 36 -61 72
-51 56 -59 69 -54 94 3 16 5 35 5 42 0 32 18 7 73 -101z m575 -77 c74 -81 105
-119 101 -123 -3 -2 -18 -6 -34 -10 -33 -6 -231 -42 -284 -51 -18 -3 -43 -7
-55 -10 -13 -2 25 41 102 116 68 66 125 120 127 120 3 0 22 -19 43 -42z"/>
</g>
</svg>
